<?xml version="1.0" encoding="utf-8"?>
<!-- Generator: Adobe Illustrator 19.0.0, SVG Export Plug-In . SVG Version: 6.00 Build 0)  -->
<svg version="1.1" id="Layer_1" xmlns="http://www.w3.org/2000/svg" xmlns:xlink="http://www.w3.org/1999/xlink" x="0px" y="0px"
	 width="168.7px" height="138.7px" viewBox="-681 176.7 168.7 138.7" style="enable-background:new -681 176.7 168.7 138.7;"
	 xml:space="preserve">
<style type="text/css">
	.st0{fill:none;stroke:#002063;stroke-width:2.53;stroke-linecap:round;stroke-miterlimit:10;}
	.st1{fill:#003CB9;}
	.st2{fill:#FFFFFF;}
	.st3{fill:#F03B58;}
	.st4{opacity:0.19;fill:#1B3073;}
	.st5{fill:#002063;}
</style>
<path id="XMLID_2_" class="st0" d="M-554.9,310.2h-100.6c-10.7,0-19.5-8.7-19.5-19.5v-89.9"/>
<path id="XMLID_14_" class="st1" d="M-554.9,301.1h-100.6c-5.8,0-10.4-4.7-10.4-10.4v-89.9c0-5.8,4.7-10.4,10.4-10.4h100.6
	c5.8,0,10.4,4.7,10.4,10.4v89.9C-544.5,296.4-549.2,301.1-554.9,301.1z"/>
<circle id="XMLID_18_" class="st2" cx="-635.3" cy="204.8" r="7.1"/>
<circle id="XMLID_21_" class="st2" cx="-575.2" cy="204.8" r="7.1"/>
<g id="XMLID_37_">
	<path id="XMLID_42_" class="st3" d="M-517.2,213.6l0,64.2c0,1.2-0.5,2.4-1.3,3.3l-2.3,2.4c-1.2,1.3-3.4,1.3-4.6,0l-2.3-2.4
		c-0.8-0.9-1.3-2.1-1.3-3.3l0-64.2c0-1.2,1-2.1,2.1-2.1l7.5,0C-518.2,211.5-517.2,212.5-517.2,213.6z"/>
	<path id="XMLID_41_" class="st4" d="M-529,213.6l0,64.2c0,1.2,0.5,2.4,1.3,3.3l2.3,2.4c0.6,0.7,1.4,1,2.3,1l0-73.1l-3.7,0
		C-528.1,211.5-529,212.5-529,213.6z"/>
	<path id="XMLID_40_" class="st5" d="M-529,213.6l0,2.7l11.8,0l0-2.7c0-1.2-1-2.1-2.1-2.1l-7.5,0C-528.1,211.5-529,212.5-529,213.6z
		"/>
	<path id="XMLID_39_" class="st5" d="M-527.3,211.5l-4,2.4c-1,0.6-1.5,1.6-1.5,2.7l0,19.9c0,0.5,0.4,0.9,0.9,0.9l0,0
		c0.5,0,0.9-0.4,0.9-0.9l0-18c0-1.2,1-2.2,2.2-2.2l0,0l2.1-2.4L-527.3,211.5z"/>
	<path id="XMLID_38_" class="st5" d="M-525.4,283.6c1.2,1.3,3.4,1.3,4.6,0l2.3-2.4c0.8-0.9,1.3-2.1,1.3-3.3l0-2.7l-11.8,0l0,2.7
		c0,1.2,0.5,2.4,1.3,3.3L-525.4,283.6z"/>
</g>
<path id="XMLID_17_" class="st5" d="M-635.3,203.7L-635.3,203.7c-2.5,0-4.5-2-4.5-4.5v-12.3c0-2.5,2-4.5,4.5-4.5l0,0
	c2.5,0,4.5,2,4.5,4.5v12.3C-630.7,201.7-632.8,203.7-635.3,203.7z"/>
<path id="XMLID_19_" class="st5" d="M-575.2,203.7L-575.2,203.7c-2.5,0-4.5-2-4.5-4.5v-12.3c0-2.5,2-4.5,4.5-4.5l0,0
	c2.5,0,4.5,2,4.5,4.5v12.3C-570.7,201.7-572.7,203.7-575.2,203.7z"/>
<rect id="XMLID_20_" x="-652.6" y="222.7" class="st3" width="12.8" height="12.8"/>
<rect id="XMLID_23_" x="-632.5" y="222.7" class="st3" width="12.8" height="12.8"/>
<rect id="XMLID_24_" x="-612.4" y="222.7" class="st3" width="12.8" height="12.8"/>
<rect id="XMLID_25_" x="-592.3" y="222.7" class="st5" width="12.8" height="12.8"/>
<rect id="XMLID_26_" x="-572.2" y="222.7" class="st5" width="12.8" height="12.8"/>
<rect id="XMLID_31_" x="-652.6" y="241.6" class="st3" width="12.8" height="12.8"/>
<rect id="XMLID_30_" x="-632.5" y="241.6" class="st3" width="12.8" height="12.8"/>
<rect id="XMLID_29_" x="-612.4" y="241.6" class="st3" width="12.8" height="12.8"/>
<rect id="XMLID_28_" x="-592.3" y="241.6" class="st5" width="12.8" height="12.8"/>
<rect id="XMLID_27_" x="-572.2" y="241.6" class="st5" width="12.8" height="12.8"/>
<rect id="XMLID_36_" x="-652.6" y="260.6" class="st3" width="12.8" height="12.8"/>
<rect id="XMLID_35_" x="-632.5" y="260.6" class="st3" width="12.8" height="12.8"/>
<rect id="XMLID_34_" x="-612.4" y="260.6" class="st3" width="12.8" height="12.8"/>
<rect id="XMLID_33_" x="-592.3" y="260.6" class="st5" width="12.8" height="12.8"/>
</svg>
