<?xml version="1.0" encoding="utf-8"?>
<!-- Generator: Adobe Illustrator 19.0.0, SVG Export Plug-In . SVG Version: 6.00 Build 0)  -->
<svg version="1.1" id="Layer_1" xmlns="http://www.w3.org/2000/svg" xmlns:xlink="http://www.w3.org/1999/xlink" x="0px" y="0px"
	 width="158px" height="144.5px" viewBox="-675.7 170 158 144.5" style="enable-background:new -675.7 170 158 144.5;"
	 xml:space="preserve">
<style type="text/css">
	.st0{fill:#002063;}
	.st1{fill:#003CB9;}
	.st2{fill:#F03B58;}
	.st3{fill:none;stroke:#002063;stroke-width:2.53;stroke-linecap:round;stroke-linejoin:round;stroke-miterlimit:10;}
</style>
<path id="XMLID_77_" class="st0" d="M-670.7,201.1v101.9h61.7c4.7,0,9.2,1.8,12.3,4.9V206c-3.1-3.1-7.6-5-12.3-4.9H-670.7z"/>
<path id="XMLID_75_" class="st0" d="M-522.6,302.9V201.1h-61.7c-4.7,0-9.2,1.8-12.3,4.9v101.9c3.1-3.1,7.6-5,12.3-4.9H-522.6z"/>
<path id="XMLID_73_" class="st1" d="M-660.3,191.4v99h53.1c4.1,0,7.9,1.8,10.6,4.8v-99c-2.7-3.1-6.5-4.8-10.6-4.8H-660.3z"/>
<path id="XMLID_71_" class="st2" d="M-533,290.5v-99H-586c-4.1,0-7.9,1.8-10.6,4.8v99c2.7-3.1,6.5-4.8,10.6-4.8H-533z"/>
<path id="XMLID_69_" class="st3" d="M-533,179.4H-586c-4.1,0-7.9,1.8-10.6,4.8"/>
<path id="XMLID_67_" class="st3" d="M-660.3,179.4h53.1c4.1,0,7.9,1.8,10.6,4.8"/>
<path id="XMLID_66_" class="st2" d="M-622.8,218.4h-11.3c-1.4,0-2.6-1.2-2.6-2.6v0c0-1.4,1.2-2.6,2.6-2.6h11.3
	c1.4,0,2.6,1.2,2.6,2.6v0C-620.3,217.3-621.4,218.4-622.8,218.4z"/>
<path id="XMLID_65_" class="st2" d="M-611.3,232.2h-19.8c-1.4,0-2.6-1.2-2.6-2.6v0c0-1.4,1.2-2.6,2.6-2.6h19.8
	c1.4,0,2.6,1.2,2.6,2.6v0C-608.7,231-609.8,232.2-611.3,232.2z"/>
<path id="XMLID_32_" class="st2" d="M-611.3,245.9h-2.6c-1.4,0-2.6-1.2-2.6-2.6l0,0c0-1.4,1.2-2.6,2.6-2.6h2.6
	c1.4,0,2.6,1.2,2.6,2.6l0,0C-608.7,244.8-609.8,245.9-611.3,245.9z"/>
<path id="XMLID_22_" class="st2" d="M-611.3,259.7h-34.5c-1.4,0-2.6-1.2-2.6-2.6l0,0c0-1.4,1.2-2.6,2.6-2.6h34.5
	c1.4,0,2.6,1.2,2.6,2.6l0,0C-608.7,258.5-609.8,259.7-611.3,259.7z"/>
<path id="XMLID_8_" class="st2" d="M-623.8,273.4h-22c-1.4,0-2.6-1.2-2.6-2.6v0c0-1.4,1.2-2.6,2.6-2.6h22c1.4,0,2.6,1.2,2.6,2.6v0
	C-621.2,272.2-622.3,273.4-623.8,273.4z"/>
<path id="XMLID_7_" class="st2" d="M-640.9,232.2h-4.8c-1.4,0-2.6-1.2-2.6-2.6v0c0-1.4,1.2-2.6,2.6-2.6h4.8c1.4,0,2.6,1.2,2.6,2.6v0
	C-638.3,231-639.5,232.2-640.9,232.2z"/>
<path id="XMLID_6_" class="st2" d="M-625,245.9h-20.7c-1.4,0-2.6-1.2-2.6-2.6l0,0c0-1.4,1.2-2.6,2.6-2.6h20.7c1.4,0,2.6,1.2,2.6,2.6
	l0,0C-622.4,244.8-623.6,245.9-625,245.9z"/>
<g id="XMLID_9_">
	<path id="XMLID_16_" class="st1" d="M-569.4,218.4h11.3c1.4,0,2.6-1.2,2.6-2.6v0c0-1.4-1.2-2.6-2.6-2.6h-11.3
		c-1.4,0-2.6,1.2-2.6,2.6v0C-572,217.3-570.8,218.4-569.4,218.4z"/>
	<path id="XMLID_15_" class="st1" d="M-581,232.2h19.8c1.4,0,2.6-1.2,2.6-2.6v0c0-1.4-1.2-2.6-2.6-2.6H-581c-1.4,0-2.6,1.2-2.6,2.6
		v0C-583.6,231-582.4,232.2-581,232.2z"/>
	<path id="XMLID_5_" class="st1" d="M-581,245.9h11.8c1.4,0,2.6-1.2,2.6-2.6l0,0c0-1.4-1.2-2.6-2.6-2.6H-581c-1.4,0-2.6,1.2-2.6,2.6
		l0,0C-583.6,244.8-582.4,245.9-581,245.9z"/>
	<path id="XMLID_13_" class="st1" d="M-581,259.7h34.5c1.4,0,2.6-1.2,2.6-2.6l0,0c0-1.4-1.2-2.6-2.6-2.6H-581
		c-1.4,0-2.6,1.2-2.6,2.6l0,0C-583.6,258.5-582.4,259.7-581,259.7z"/>
	<path id="XMLID_12_" class="st1" d="M-581,273.4h22.9c1.4,0,2.6-1.2,2.6-2.6l0,0c0-1.4-1.2-2.6-2.6-2.6H-581
		c-1.4,0-2.6,1.2-2.6,2.6l0,0C-583.6,272.2-582.4,273.4-581,273.4z"/>
	<path id="XMLID_11_" class="st1" d="M-551.4,232.2h4.8c1.4,0,2.6-1.2,2.6-2.6v0c0-1.4-1.2-2.6-2.6-2.6h-4.8c-1.4,0-2.6,1.2-2.6,2.6
		v0C-553.9,231-552.8,232.2-551.4,232.2z"/>
	<path id="XMLID_10_" class="st1" d="M-560.1,245.9h13.5c1.4,0,2.6-1.2,2.6-2.6v0c0-1.4-1.2-2.6-2.6-2.6h-13.5
		c-1.4,0-2.6,1.2-2.6,2.6v0C-562.7,244.8-561.5,245.9-560.1,245.9z"/>
</g>
</svg>
