<?xml version="1.0" encoding="utf-8"?>
<!-- Generator: Adobe Illustrator 19.0.0, SVG Export Plug-In . SVG Version: 6.00 Build 0)  -->
<svg version="1.1" id="Layer_1" xmlns="http://www.w3.org/2000/svg" xmlns:xlink="http://www.w3.org/1999/xlink" x="0px" y="0px"
	 width="150.3px" height="152.1px" viewBox="-671.8 170 150.3 152.1" style="enable-background:new -671.8 170 150.3 152.1;"
	 xml:space="preserve">
<style type="text/css">
	.st0{fill:#F03B58;}
	.st1{opacity:0.19;fill:#1B3073;}
	.st2{fill:#002063;}
	.st3{fill:#003CB9;}
	.st4{fill:none;stroke:#002063;stroke-width:2.53;stroke-linecap:round;stroke-miterlimit:10;}
</style>
<g id="XMLID_47_">
	<path id="XMLID_55_" class="st0" d="M-651.7,213l0,64.2c0,1.2-0.5,2.4-1.3,3.3l-2.3,2.4c-1.2,1.3-3.4,1.3-4.6,0l-2.3-2.4
		c-0.8-0.9-1.3-2.1-1.3-3.3l0-64.2c0-1.2,1-2.1,2.1-2.1l7.5,0C-652.7,210.9-651.7,211.9-651.7,213z"/>
	<path id="XMLID_52_" class="st1" d="M-663.5,213l0,64.2c0,1.2,0.5,2.4,1.3,3.3l2.3,2.4c0.6,0.7,1.4,1,2.3,1l0-73.1l-3.7,0
		C-662.5,210.9-663.5,211.9-663.5,213z"/>
	<path id="XMLID_50_" class="st2" d="M-663.5,213v2.7l11.8,0v-2.7c0-1.2-1-2.1-2.1-2.1l-7.5,0C-662.5,210.9-663.5,211.9-663.5,213z"
		/>
	<path id="XMLID_49_" class="st2" d="M-661.8,210.9l-4,2.4c-1,0.6-1.5,1.6-1.5,2.7l0,19.9c0,0.5,0.4,0.9,0.9,0.9l0,0
		c0.5,0,0.9-0.4,0.9-0.9l0-18c0-1.2,1-2.2,2.2-2.2l0,0l2.1-2.4L-661.8,210.9z"/>
	<path id="XMLID_48_" class="st2" d="M-659.9,283c1.2,1.3,3.4,1.3,4.6,0l2.3-2.4c0.8-0.9,1.3-2.1,1.3-3.3v-2.7l-11.8,0v2.7
		c0,1.2,0.5,2.4,1.3,3.3L-659.9,283z"/>
</g>
<polygon id="XMLID_44_" class="st3" points="-540.5,208.6 -540.5,304.9 -641.6,304.9 -641.6,175.9 -573.2,175.9 "/>
<polygon id="XMLID_46_" class="st0" points="-540.5,208.6 -573.2,208.6 -573.2,175.9 "/>
<path id="XMLID_56_" class="st0" d="M-592.1,202.8h-30.2c-1.5,0-2.8-1.2-2.8-2.8l0,0c0-1.5,1.2-2.8,2.8-2.8h30.2
	c1.5,0,2.8,1.2,2.8,2.8l0,0C-589.3,201.5-590.6,202.8-592.1,202.8z"/>
<path id="XMLID_60_" class="st0" d="M-594.4,225.9h-27.8c-1.5,0-2.8-1.2-2.8-2.8v0c0-1.5,1.2-2.8,2.8-2.8h27.8
	c1.5,0,2.8,1.2,2.8,2.8v0C-591.6,224.6-592.9,225.9-594.4,225.9z"/>
<path id="XMLID_61_" class="st0" d="M-568.1,238.7h-54.2c-1.5,0-2.8-1.2-2.8-2.8l0,0c0-1.5,1.2-2.8,2.8-2.8h54.2
	c1.5,0,2.8,1.2,2.8,2.8l0,0C-565.3,237.5-566.6,238.7-568.1,238.7z"/>
<path id="XMLID_62_" class="st0" d="M-568.1,251.6H-594c-1.5,0-2.8-1.2-2.8-2.8l0,0c0-1.5,1.2-2.8,2.8-2.8h25.9
	c1.5,0,2.8,1.2,2.8,2.8l0,0C-565.3,250.3-566.6,251.6-568.1,251.6z"/>
<path id="XMLID_63_" class="st0" d="M-568.1,264.4h-54.2c-1.5,0-2.8-1.2-2.8-2.8l0,0c0-1.5,1.2-2.8,2.8-2.8h54.2
	c1.5,0,2.8,1.2,2.8,2.8l0,0C-565.3,263.2-566.6,264.4-568.1,264.4z"/>
<path id="XMLID_64_" class="st0" d="M-588,282.6h-34.2c-1.5,0-2.8-1.2-2.8-2.8l0,0c0-1.5,1.2-2.8,2.8-2.8h34.2
	c1.5,0,2.8,1.2,2.8,2.8l0,0C-585.2,281.3-586.5,282.6-588,282.6z"/>
<circle id="XMLID_59_" class="st2" cx="-555.6" cy="294.5" r="23.7"/>
<g id="XMLID_57_">
	<path id="XMLID_58_" class="st0" d="M-545.2,283.1l-13.8,14.8c-0.3,0.4-0.9,0.4-1.2,0l-3.9-4c-1.3-1.3-3.4-1.3-4.8,0l0,0
		c-1.3,1.3-1.3,3.4,0,4.7l7.2,7.3c1.3,1.4,3.5,1.3,4.8-0.1l16.6-18.2c1.3-1.4,1.1-3.5-0.2-4.7l0,0
		C-541.9,281.6-544,281.7-545.2,283.1z"/>
</g>
<line id="XMLID_4_" class="st4" x1="-528.5" y1="214.4" x2="-528.5" y2="273.3"/>
<path id="XMLID_1_" class="st0" d="M-605.9,251.6h-16.4c-1.5,0-2.8-1.2-2.8-2.8v0c0-1.5,1.2-2.8,2.8-2.8h16.4c1.5,0,2.8,1.2,2.8,2.8
	v0C-603.1,250.3-604.4,251.6-605.9,251.6z"/>
<path id="XMLID_3_" class="st0" d="M-568.1,225.9h-15.1c-1.5,0-2.8-1.2-2.8-2.8l0,0c0-1.5,1.2-2.8,2.8-2.8h15.1
	c1.5,0,2.8,1.2,2.8,2.8l0,0C-565.3,224.6-566.6,225.9-568.1,225.9z"/>
</svg>
