<?xml version="1.0" encoding="utf-8"?>
<!-- Generator: Adobe Illustrator 19.0.0, SVG Export Plug-In . SVG Version: 6.00 Build 0)  -->
<svg version="1.1" id="Layer_1" xmlns="http://www.w3.org/2000/svg" xmlns:xlink="http://www.w3.org/1999/xlink" x="0px" y="0px"
	 width="140.5px" height="165.6px" viewBox="-675.7 148.9 140.5 165.6" style="enable-background:new -675.7 148.9 140.5 165.6;"
	 xml:space="preserve">
<style type="text/css">
	.st0{fill:#002063;}
	.st1{fill:none;stroke:#002063;stroke-width:2.4;stroke-linecap:round;stroke-miterlimit:10;}
	.st2{fill:#003CB9;}
	.st3{fill:#EFA68F;}
	.st4{fill:#F03B58;}
</style>
<path id="XMLID_88_" class="st0" d="M-552.2,308.9c0,0,1.9-11-10.4-28.8c-16.7-23.9-14.5-43.8-14.3-54.9c0-0.8,0.1-1.7,0.1-2.5
	c0-26.3-22.2-47.5-48.9-45.7c-22.6,1.5-41.1,19.7-42.7,42.4c-0.9,13,3.6,24.9,11.4,33.8c2.9,3.2,9,11.6,4.6,31.1l37.1,24.7H-552.2z"
	/>
<path id="XMLID_87_" class="st1" d="M-541,308.9c0,0,1.9-11-10.4-28.8c-16.7-23.9-14.5-43.8-14.3-54.9c0-0.8,0.1-1.7,0.1-2.5
	c0-6.3-1.3-12.4-3.6-17.9"/>
<path id="XMLID_86_" class="st2" d="M-593.4,275.1h-51.7c-8.5,0-16,5.4-18.8,13.4l-2.8,8.2c-2.1,6,2.4,12.2,8.7,12.2h76.6
	c5.9,0,10.3-5.5,9-11.3l-1.7-7.4C-576.3,281.4-584.3,275.1-593.4,275.1z"/>
<path id="XMLID_85_" class="st3" d="M-634.2,256.6L-634.2,256.6c-13.4,0-23.3-12.5-20.4-25.5l7.2-31.4c0,0,5.4,0.5,12.2,5.1
	c6.9,4.6,7.2,6.7,13.5,12.6c6.3,5.9,13.5,8.2,17.4,8.2h0.1c3.3,0,6,2.7,6,6v0c0,3.3-2.7,6-6,6h-1.7l-1.9,37.5h10.1l-25.4,16.1
	c-7,4.5-16.2-0.6-16.2-8.9v-7h5.4L-634.2,256.6z"/>
<g id="XMLID_79_">
	<path id="XMLID_84_" class="st2" d="M-550.1,196.5h-52.6c-2,0-3.7-1.6-3.7-3.7v-35.7c0-2,1.6-3.7,3.7-3.7h52.6c2,0,3.7,1.6,3.7,3.7
		v35.7C-546.4,194.8-548.1,196.5-550.1,196.5z"/>
	<polyline id="XMLID_83_" class="st2" points="-606.3,192.3 -606.3,209.2 -587.3,196.5 -605.9,192.3 	"/>
	<path id="XMLID_82_" class="st4" d="M-556.8,167.6h-37c-1,0-1.9-0.8-1.9-1.9v-1.4c0-1,0.8-1.9,1.9-1.9h37c1,0,1.9,0.8,1.9,1.9v1.4
		C-555,166.8-555.8,167.6-556.8,167.6z"/>
	<path id="XMLID_81_" class="st4" d="M-556.8,177.5h-37c-1,0-1.9-0.8-1.9-1.9v-1.4c0-1,0.8-1.9,1.9-1.9h37c1,0,1.9,0.8,1.9,1.9v1.4
		C-555,176.7-555.8,177.5-556.8,177.5z"/>
	<path id="XMLID_80_" class="st4" d="M-573.2,187.4h-20.6c-1,0-1.9-0.8-1.9-1.9v-1.4c0-1,0.8-1.9,1.9-1.9h20.6c1,0,1.9,0.8,1.9,1.9
		v1.4C-571.4,186.6-572.2,187.4-573.2,187.4z"/>
</g>
</svg>
