<?xml version="1.0" encoding="utf-8"?>
<!-- Generator: Adobe Illustrator 19.0.0, SVG Export Plug-In . SVG Version: 6.00 Build 0)  -->
<svg version="1.1" id="Layer_1" xmlns="http://www.w3.org/2000/svg" xmlns:xlink="http://www.w3.org/1999/xlink" x="0px" y="0px"
	 width="59.7px" height="65.8px" viewBox="-735 213.6 59.7 65.8" style="enable-background:new -735 213.6 59.7 65.8;"
	 xml:space="preserve">
<style type="text/css">
	.st0{fill:#F03B58;}
	.st1{fill:#003CB9;}
	.st2{fill:#FFFFFF;}
</style>
<path id="XMLID_44_" class="st0" d="M-680.5,236.1V273c0,1-0.8,1.8-1.8,1.8h-40.8c-1,0-1.8-0.8-1.8-1.8v-53.1c0-1,0.8-1.8,1.8-1.8
	h24.6L-680.5,236.1z"/>
<polygon id="XMLID_46_" class="st1" points="-680.5,236.1 -698.5,236.1 -698.5,218.1 "/>
<path id="XMLID_1_" class="st1" d="M-693.5,265.3h-36.8c-0.6,0-1.1-0.5-1.1-1.1v-18.9c0-0.6,0.5-1.1,1.1-1.1h36.7
	c0.6,0,1.1,0.5,1.1,1.1v18.8C-692.4,264.8-692.9,265.3-693.5,265.3z"/>
<g>
	<path class="st2" d="M-727.3,260.7v-11.6c0.6,0,2.7,0,3.5,0c3.5,0,4.7,1.8,4.7,3.8c0,2.1-1.6,3.9-4.3,3.9c-0.2,0-0.9,0-1.3,0v3.9
		H-727.3z M-724.6,251.6v2.7c0.4,0,0.8,0.1,1.2,0.1c0.7,0,1.6-0.3,1.6-1.4c0-1-0.7-1.3-1.6-1.3
		C-723.8,251.6-724.1,251.6-724.6,251.6z"/>
	<path class="st2" d="M-716.9,249.1h0.2c0.6,0,2.7,0,3.4,0c4.6,0,6.5,2.7,6.5,5.8c0,3.3-2.2,5.9-6.7,5.9c-0.6,0-2.1,0-3.3,0h-0.3
		v-11.7H-716.9z M-714.2,251.6v6.6c0.3,0,0.6,0,1,0c2.3,0,3.7-1.2,3.7-3.4c0-2.1-1.6-3.3-3.7-3.3
		C-713.5,251.5-713.9,251.5-714.2,251.6z"/>
	<path class="st2" d="M-704.5,249.1h6.7v2.5h-4.1v2.5h3.6v2.5h-3.6v4.2h-2.7L-704.5,249.1L-704.5,249.1z"/>
</g>
</svg>
