<svg width="10" height="21" viewBox="0 0 10 21" fill="none" xmlns="http://www.w3.org/2000/svg">
<path d="M9.23847 0.00427664L6.93587 0C4.34898 0 2.67722 1.98543 2.67722 5.05841V7.39068H0.362061C0.162004 7.39068 0 7.57842 0 7.81V11.1892C0 11.4208 0.162189 11.6083 0.362061 11.6083H2.67722V20.1351C2.67722 20.3667 2.83922 20.5542 3.03928 20.5542H6.05991C6.25996 20.5542 6.42197 20.3664 6.42197 20.1351V11.6083H9.12893C9.32899 11.6083 9.49099 11.4208 9.49099 11.1892L9.4921 7.81C9.4921 7.69881 9.45386 7.59232 9.38606 7.51363C9.31827 7.43494 9.22591 7.39068 9.12985 7.39068H6.42197V5.41359C6.42197 4.46332 6.61759 3.98091 7.68696 3.98091L9.2381 3.98027C9.43797 3.98027 9.59998 3.79253 9.59998 3.56116V0.423388C9.59998 0.192235 9.43816 0.00470431 9.23847 0.00427664Z" fill="#313136"/>
</svg>
