<?xml version="1.0" encoding="utf-8"?>
<!-- Generator: Adobe Illustrator 19.0.0, SVG Export Plug-In . SVG Version: 6.00 Build 0)  -->
<svg version="1.1" id="Layer_1" xmlns="http://www.w3.org/2000/svg" xmlns:xlink="http://www.w3.org/1999/xlink" x="0px" y="0px"
	 width="239.3px" height="233.5px" viewBox="-645 128.9 239.3 233.5" style="enable-background:new -645 128.9 239.3 233.5;"
	 xml:space="preserve">
<style type="text/css">
	.st0{fill:#F4F2F3;}
	.st1{fill:none;stroke:#002063;stroke-width:1.4482;stroke-linecap:round;stroke-miterlimit:10;}
	.st2{fill:#1B3073;}
	.st3{fill:#003CB9;}
	.st4{fill:#F03B58;}
	.st5{fill:#FFFFFF;}
	.st6{fill:#E4E5E6;}
	.st7{opacity:0.19;fill:#1B3073;enable-background:new    ;}
</style>
<circle id="XMLID_263_" class="st0" cx="-528.1" cy="245.6" r="116.7"/>
<g id="XMLID_41_">
	<path id="XMLID_42_" class="st1" d="M-508.1,134.2l-99.7,57.5c-4.3,2.5-7.9,8.6-7.8,13.6l0.2,69.2c0,5,3.5,7,7.9,4.5l99.7-57.5
		c4.3-2.5,7.8-8.6,7.8-13.6l-0.2-69.2C-500.2,133.7-503.7,131.7-508.1,134.2"/>
</g>
<path id="XMLID_40_" class="st2" d="M-500.6,139.1l-99.7,57.5c-4.3,2.5-7.9,8.6-7.8,13.6l0.2,69.2c0,5,3.5,7,7.9,4.5l99.7-57.5
	c4.3-2.5,7.8-8.6,7.8-13.6l-0.2-69.2C-492.7,138.6-496.3,136.5-500.6,139.1"/>
<path id="XMLID_38_" class="st2" d="M-422.3,269.1l-60.2-34.7c-4.3-2.5-11.4-2.5-15.7,0l-99,57.5c-2.2,1.3-3.3,3-3.2,4.6
	c0,0.9,0,4.6,0,5.7c0.1,1.6,1.2,3.2,3.3,4.4l60.2,34.7c4.3,2.5,11.4,2.5,15.7,0l99-57.5c2.1-1.2,3.1-2.7,3.2-4.3c0.1-1,0-4.8,0-5.7
	C-419,272.1-420.1,270.4-422.3,269.1z"/>
<path id="XMLID_37_" class="st3" d="M-422.3,267.6l-60.2-34.7c-4.3-2.5-11.4-2.5-15.7,0l-99,57.5c-4.3,2.5-4.3,6.6,0.1,9.1
	l60.2,34.7c4.3,2.5,11.4,2.5,15.7,0l99-57.5C-417.9,274.2-418,270.1-422.3,267.6"/>
<g id="XMLID_14_">
	<path id="XMLID_35_" class="st4" d="M-532.9,291.8l40.7-23.5c1.2-0.7,3.2-0.7,4.4,0l4.6,2.7c1.2,0.7,1.2,1.8,0,2.6l-40.7,23.5
		c-1.2,0.7-3.2,0.7-4.4,0l-4.6-2.7C-534.2,293.7-534.2,292.5-532.9,291.8"/>
	<path id="XMLID_34_" class="st4" d="M-496.7,243.1l4.6-2.7c1.2-0.7,3.2-0.7,4.4,0l4.6,2.7c1.2,0.7,1.2,1.8,0,2.6l-4.6,2.7
		c-1.2,0.7-3.2,0.7-4.4,0l-4.6-2.7C-497.9,245-497.9,243.9-496.7,243.1"/>
	<path id="XMLID_33_" class="st4" d="M-508.7,250.1l4.6-2.7c1.2-0.7,3.2-0.7,4.4,0l4.6,2.7c1.2,0.7,1.2,1.8,0,2.6l-4.6,2.7
		c-1.2,0.7-3.2,0.7-4.4,0l-4.6-2.7C-509.9,251.9-509.9,250.8-508.7,250.1"/>
	<path id="XMLID_32_" class="st4" d="M-520.7,257.1l4.6-2.7c1.2-0.7,3.2-0.7,4.4,0l4.6,2.7c1.2,0.7,1.2,1.8,0,2.6l-4.6,2.7
		c-1.2,0.7-3.2,0.7-4.4,0l-4.6-2.7C-522,258.9-522,257.8-520.7,257.1"/>
	<path id="XMLID_31_" class="st4" d="M-532.8,264l4.6-2.7c1.2-0.7,3.2-0.7,4.4,0l4.6,2.7c1.2,0.7,1.2,1.8,0,2.6l-4.6,2.7
		c-1.2,0.7-3.2,0.7-4.4,0l-4.6-2.7C-534,265.9-534,264.7-532.8,264"/>
	<path id="XMLID_30_" class="st4" d="M-544.8,271l4.6-2.7c1.2-0.7,3.2-0.7,4.4,0l4.6,2.7c1.2,0.7,1.2,1.8,0,2.6l-4.6,2.7
		c-1.2,0.7-3.2,0.7-4.4,0l-4.6-2.7C-546.1,272.8-546,271.7-544.8,271"/>
	<path id="XMLID_29_" class="st4" d="M-556.9,277.9l4.6-2.7c1.2-0.7,3.2-0.7,4.4,0l4.6,2.7c1.2,0.7,1.2,1.8,0,2.6l-4.6,2.7
		c-1.2,0.7-3.2,0.7-4.4,0l-4.6-2.7C-558.1,279.8-558.1,278.6-556.9,277.9"/>
	<path id="XMLID_28_" class="st4" d="M-568.9,284.9l4.6-2.7c1.2-0.7,3.2-0.7,4.4,0l4.6,2.7c1.2,0.7,1.2,1.8,0,2.6l-4.6,2.7
		c-1.2,0.7-3.2,0.7-4.4,0l-4.6-2.7C-570.1,286.7-570.1,285.6-568.9,284.9"/>
	<path id="XMLID_27_" class="st4" d="M-581,291.8l4.6-2.7c1.2-0.7,3.2-0.7,4.4,0l4.6,2.7c1.2,0.7,1.2,1.8,0,2.6l-4.6,2.7
		c-1.2,0.7-3.2,0.7-4.4,0l-4.6-2.7C-582.2,293.7-582.2,292.5-581,291.8"/>
	<path id="XMLID_26_" class="st4" d="M-472.7,257.1l4.6-2.7c1.2-0.7,3.2-0.7,4.4,0l4.6,2.7c1.2,0.7,1.2,1.9,0,2.6l-4.6,2.7
		c-1.2,0.7-3.2,0.7-4.4,0l-4.6-2.7C-474,258.9-473.9,257.8-472.7,257.1"/>
	<path id="XMLID_25_" class="st4" d="M-484.8,264l4.6-2.7c1.2-0.7,3.2-0.7,4.4,0l4.6,2.7c1.2,0.7,1.2,1.8,0,2.6l-4.6,2.7
		c-1.2,0.7-3.2,0.7-4.4,0l-4.6-2.7C-486,265.9-486,264.7-484.8,264"/>
	<path id="XMLID_24_" class="st4" d="M-545,298.8l4.6-2.7c1.2-0.7,3.2-0.7,4.4,0l4.6,2.7c1.2,0.7,1.2,1.8,0,2.6l-4.6,2.7
		c-1.2,0.7-3.2,0.7-4.4,0l-4.6-2.7C-546.2,300.6-546.2,299.5-545,298.8"/>
	<path id="XMLID_23_" class="st4" d="M-557,305.7l4.6-2.7c1.2-0.7,3.2-0.7,4.4,0l4.6,2.7c1.2,0.7,1.2,1.8,0,2.6l-4.6,2.7
		c-1.2,0.7-3.2,0.7-4.4,0l-4.6-2.7C-558.3,307.6-558.3,306.4-557,305.7"/>
	<path id="XMLID_22_" class="st4" d="M-490.6,253.5l10.6-6.1c1.2-0.7,3.2-0.7,4.4,0l4.6,2.7c1.2,0.7,1.2,1.8,0,2.6l-10.6,6.1
		c-1.2,0.7-3.2,0.7-4.4,0l-4.6-2.7C-491.9,255.4-491.9,254.2-490.6,253.5"/>
	<path id="XMLID_21_" class="st4" d="M-569,298.8l10.9-6.3c1.2-0.7,3.2-0.7,4.4,0l4.6,2.7c1.2,0.7,1.2,1.8,0,2.6l-10.9,6.3
		c-1.2,0.7-3.2,0.7-4.4,0l-4.6-2.7C-570.2,300.6-570.2,299.5-569,298.8"/>
	<path id="XMLID_20_" class="st4" d="M-502.5,260.4l4.6-2.7c1.2-0.7,3.2-0.7,4.4,0l4.6,2.7c1.2,0.7,1.2,1.8,0,2.6l-4.6,2.7
		c-1.2,0.7-3.2,0.7-4.4,0l-4.6-2.7C-503.7,262.2-503.7,261.1-502.5,260.4"/>
	<path id="XMLID_19_" class="st4" d="M-514.6,267.3l4.6-2.7c1.2-0.7,3.2-0.7,4.4,0l4.6,2.7c1.2,0.7,1.2,1.8,0,2.6l-4.6,2.7
		c-1.2,0.7-3.2,0.7-4.4,0l-4.6-2.7C-515.8,269.2-515.8,268.1-514.6,267.3"/>
	<path id="XMLID_18_" class="st4" d="M-526.6,274.3l4.6-2.7c1.2-0.7,3.2-0.7,4.4,0l4.6,2.7c1.2,0.7,1.2,1.8,0,2.6l-4.6,2.7
		c-1.2,0.7-3.2,0.7-4.4,0l-4.6-2.7C-527.8,276.1-527.8,275-526.6,274.3"/>
	<path id="XMLID_17_" class="st4" d="M-538.6,281.3l4.6-2.7c1.2-0.7,3.2-0.7,4.4,0l4.6,2.7c1.2,0.7,1.2,1.8,0,2.6l-4.6,2.7
		c-1.2,0.7-3.2,0.7-4.4,0l-4.6-2.7C-539.9,283.1-539.9,282-538.6,281.3"/>
	<path id="XMLID_16_" class="st4" d="M-550.7,288.2l4.6-2.7c1.2-0.7,3.2-0.7,4.4,0l4.6,2.7c1.2,0.7,1.2,1.8,0,2.6l-4.6,2.7
		c-1.2,0.7-3.2,0.7-4.4,0l-4.6-2.7C-551.9,290.1-551.9,288.9-550.7,288.2"/>
</g>
<path id="XMLID_15_" class="st2" d="M-514.7,297.6l33.1-19.1c1-0.6,2.6-0.6,3.6,0l16.7,9.7c1,0.6,1,1.5,0,2.1l-33.1,19.1
	c-1,0.6-2.6,0.6-3.6,0l-16.7-9.7C-515.7,299.1-515.7,298.2-514.7,297.6"/>
<path class="st3" d="M-522.3,176.4l-19.5,33.8l-12.7-7.3c-0.8-0.4-1.8-0.3-2.8,0.3s-2,1.6-2.8,3L-579,239c3.1-1.6,5.5-0.2,5.6,3.2
	l16.1-27.9l12.7,7.3c0.8,0.4,1.8,0.3,2.8-0.3s2-1.6,2.8-3l22.3-38.6C-519.8,181.3-522.2,179.9-522.3,176.4"/>
<path class="st4" d="M-579.3,239.1c-3.2,1.9-5.8,6.4-5.8,10c0,3.7,2.6,5.2,5.8,3.3s5.8-6.4,5.8-10c0-0.1,0-0.1,0-0.2
	c-0.1-3.5-2.6-4.9-5.6-3.2C-579.2,239-579.2,239-579.3,239.1"/>
<path class="st4" d="M-516.5,166.1c-3.2,1.9-5.8,6.4-5.8,10c0,0.1,0,0.1,0,0.2c0.1,3.5,2.6,4.9,5.6,3.2c0.1,0,0.1-0.1,0.2-0.1
	c3.2-1.9,5.8-6.4,5.8-10C-510.7,165.8-513.3,164.3-516.5,166.1"/>
<g>
	<path class="st5" d="M-495.9,244.4c-1,0.6-1.8,0.1-1.8-1V240c0-1.1,0.8-2.5,1.8-3.1l27-15.6c1-0.6,1.8-0.1,1.8,1v3.4
		c0,1.1-0.8,2.5-1.8,3.1L-495.9,244.4 M-496,231.5c-1,0.6-1.8,0.1-1.8-1v-3.4c0-1.1,0.8-2.5,1.8-3.1l51.4-29.7c1-0.6,1.8-0.1,1.8,1
		v3.4c0,1.1-0.8,2.5-1.8,3.1L-496,231.5 M-496,218.6c-1,0.6-1.8,0.1-1.8-1v-3.4c0-1.1,0.8-2.5,1.8-3.1l51.4-29.7
		c1-0.6,1.8-0.1,1.8,1v3.4c0,1.1-0.8,2.5-1.8,3.1L-496,218.6 M-496,205.7c-1,0.6-1.8,0.1-1.8-1v-3.4c0-1.1,0.8-2.5,1.8-3.1
		l51.4-29.7c1-0.6,1.8-0.1,1.8,1v3.4c0,1.1-0.8,2.5-1.8,3.1L-496,205.7 M-434.8,150.8l-71.2,41.1c-0.8,0.5-1.5,1.7-1.5,2.7l0.2,64.6
		c0,1,0.7,1.4,1.5,0.9l71.2-41.1c0.9-0.5,1.5-1.7,1.5-2.7l-0.2-64.6C-433.2,150.7-433.9,150.3-434.8,150.8"/>
	<path class="st6" d="M-444.6,168.4l-51.4,29.7c-1,0.6-1.8,1.9-1.8,3.1v3.4c0,1.1,0.8,1.6,1.8,1l51.4-29.7c1-0.6,1.8-1.9,1.8-3.1
		v-3.4C-442.8,168.3-443.6,167.9-444.6,168.4"/>
	<path class="st6" d="M-444.6,181.3L-496,211c-1,0.6-1.8,1.9-1.8,3.1v3.4c0,1.1,0.8,1.6,1.8,1l51.4-29.7c1-0.6,1.8-1.9,1.8-3.1v-3.4
		C-442.8,181.2-443.6,180.8-444.6,181.3"/>
	<path class="st6" d="M-444.5,194.3l-51.4,29.7c-1,0.6-1.8,1.9-1.8,3.1v3.4c0,1.1,0.8,1.6,1.8,1l51.4-29.7c1-0.6,1.8-1.9,1.8-3.1
		v-3.4C-442.8,194.2-443.6,193.7-444.5,194.3"/>
	<path class="st6" d="M-469,221.3l-27,15.6c-1,0.6-1.8,1.9-1.8,3.1v3.4c0,1.1,0.8,1.6,1.8,1l27-15.6c1-0.6,1.8-1.9,1.8-3.1v-3.4
		C-467.2,221.2-468,220.8-469,221.3"/>
</g>
<g id="XMLID_104_">
	<path id="XMLID_103_" class="st4" d="M-406.2,196.7l-42.1,42.1c-0.8,0.8-1.9,1.3-3,1.3l-3.1,0.1c-1.7,0.1-3.1-1.3-3-3l0.1-3.1
		c0-1.1,0.5-2.2,1.3-3l42.1-42.1c0.8-0.8,2-0.8,2.8,0l4.9,4.9C-405.4,194.7-405.4,195.9-406.2,196.7z"/>
	<path id="XMLID_4_" class="st7" d="M-413.9,189l-42.1,42.1c-0.8,0.8-1.3,1.9-1.3,3l-0.1,3.1c0,0.8,0.3,1.6,0.8,2.1l47.9-47.9
		l-2.4-2.4C-411.9,188.2-413.2,188.2-413.9,189z"/>
	<path id="XMLID_3_" class="st2" d="M-413.9,189l-1.8,1.8l7.7,7.7l1.8-1.8c0.8-0.8,0.8-2,0-2.8l-4.9-4.9
		C-411.9,188.2-413.2,188.2-413.9,189z"/>
	<path id="XMLID_2_" class="st2" d="M-411.4,188.7l-4.2-1.1c-1-0.3-2,0-2.8,0.8l-13,13c-0.3,0.3-0.3,0.8,0,1.1l0,0
		c0.3,0.3,0.8,0.3,1.1,0l11.8-11.8c0.8-0.8,2.1-0.8,2.9,0l0,0l3-0.2L-411.4,188.7z"/>
	<path id="XMLID_1_" class="st2" d="M-457.4,237.2c-0.1,1.7,1.3,3.1,3,3l3.1-0.1c1.1,0,2.2-0.5,3-1.3l1.8-1.8l-7.7-7.7l-1.8,1.8
		c-0.8,0.8-1.3,1.9-1.3,3L-457.4,237.2z"/>
</g>
</svg>
