<?xml version="1.0" encoding="utf-8"?>
<!-- Generator: Adobe Illustrator 19.0.0, SVG Export Plug-In . SVG Version: 6.00 Build 0)  -->
<svg version="1.1" id="Layer_1" xmlns="http://www.w3.org/2000/svg" xmlns:xlink="http://www.w3.org/1999/xlink" x="0px" y="0px"
	 width="233.5px" height="233.5px" viewBox="-648 128.9 233.5 233.5" style="enable-background:new -648 128.9 233.5 233.5;"
	 xml:space="preserve">
<style type="text/css">
	.st0{fill:#F4F2F3;}
	.st1{enable-background:new    ;}
	.st2{fill:#D52D4E;}
	.st3{clip-path:url(#SVGID_2_);enable-background:new    ;}
	.st4{clip-path:url(#SVGID_4_);enable-background:new    ;}
	.st5{fill:#7A3F52;}
	.st6{fill:#F03B58;}
	.st7{clip-path:url(#SVGID_6_);enable-background:new    ;}
	.st8{fill:#00389B;}
	.st9{clip-path:url(#SVGID_9_);}
	.st10{clip-path:url(#SVGID_12_);}
	.st11{clip-path:url(#SVGID_14_);}
	.st12{clip-path:url(#SVGID_16_);}
	.st13{clip-path:url(#SVGID_18_);}
	.st14{clip-path:url(#SVGID_22_);}
	.st15{clip-path:url(#SVGID_26_);}
	.st16{clip-path:url(#SVGID_29_);}
	.st17{clip-path:url(#SVGID_31_);}
	.st18{clip-path:url(#SVGID_34_);}
	.st19{clip-path:url(#SVGID_37_);}
	.st20{clip-path:url(#SVGID_39_);}
	.st21{clip-path:url(#SVGID_41_);}
	.st22{clip-path:url(#SVGID_43_);}
	.st23{clip-path:url(#SVGID_46_);}
	.st24{clip-path:url(#SVGID_48_);}
	.st25{clip-path:url(#SVGID_50_);}
	.st26{clip-path:url(#SVGID_52_);}
	.st27{clip-path:url(#SVGID_54_);}
	.st28{clip-path:url(#SVGID_56_);}
	.st29{clip-path:url(#SVGID_58_);}
	.st30{clip-path:url(#SVGID_60_);}
	.st31{clip-path:url(#SVGID_62_);}
	.st32{clip-path:url(#SVGID_64_);}
	.st33{clip-path:url(#SVGID_66_);}
	.st34{clip-path:url(#SVGID_68_);}
	.st35{clip-path:url(#SVGID_70_);}
	.st36{clip-path:url(#SVGID_72_);}
	.st37{clip-path:url(#SVGID_74_);}
	.st38{fill:#003CB9;}
	.st39{clip-path:url(#SVGID_76_);}
	.st40{clip-path:url(#SVGID_78_);}
	.st41{clip-path:url(#SVGID_80_);}
	.st42{clip-path:url(#SVGID_82_);}
	.st43{clip-path:url(#SVGID_84_);}
	.st44{clip-path:url(#SVGID_86_);}
	.st45{clip-path:url(#SVGID_88_);}
	.st46{clip-path:url(#SVGID_90_);}
	.st47{clip-path:url(#SVGID_92_);}
	.st48{clip-path:url(#SVGID_94_);}
	.st49{clip-path:url(#SVGID_96_);}
	.st50{fill:#B0B1B1;}
	.st51{clip-path:url(#SVGID_98_);enable-background:new    ;}
	.st52{clip-path:url(#SVGID_100_);enable-background:new    ;}
	.st53{fill:#FFFFFF;}
	.st54{clip-path:url(#SVGID_102_);enable-background:new    ;}
	.st55{fill:#002063;}
</style>
<circle id="XMLID_678_" class="st0" cx="-531.2" cy="245.6" r="116.7"/>
<g id="XMLID_37_">
	<g id="XMLID_40_" class="st1">
		<g id="XMLID_184_" class="st1">
			<g>
				<path id="SVGID_7_" class="st2" d="M-441.2,192.9l-0.1,47.2c0,0.8-0.6,1.7-1.6,2.3l0.1-47.2
					C-441.8,194.6-441.2,193.8-441.2,192.9z"/>
			</g>
			<g>
				<g>
					<g>
						<defs>
							<path id="SVGID_1_" d="M-441.2,192.9l-0.1,47.2c0,0.8-0.6,1.7-1.6,2.3l0.1-47.2C-441.8,194.6-441.2,193.8-441.2,192.9z"/>
						</defs>
						<clipPath id="SVGID_2_">
							<use xlink:href="#SVGID_1_"  style="overflow:visible;"/>
						</clipPath>
						<g id="XMLID_185_" class="st3">
							<g id="XMLID_193_">
								<path class="st2" d="M-441.2,192.9l-0.1,47.2l0,0L-441.2,192.9C-441.2,193-441.2,193-441.2,192.9"/>
							</g>
							<g id="XMLID_192_">
								<path class="st2" d="M-441.2,193l-0.1,47.2c0,0.1,0,0.2,0,0.3l0.1-47.2C-441.2,193.2-441.2,193.1-441.2,193"/>
							</g>
							<g id="XMLID_191_">
								<path class="st2" d="M-441.2,193.3l-0.1,47.2c0,0.1-0.1,0.2-0.1,0.3l0.1-47.2C-441.2,193.5-441.2,193.4-441.2,193.3"/>
							</g>
							<g id="XMLID_176_">
								<path class="st2" d="M-441.2,193.6l-0.1,47.2c0,0.1-0.1,0.2-0.2,0.3l0.1-47.2C-441.5,193.8-441.2,193.7-441.2,193.6"/>
							</g>
							<g id="XMLID_175_">
								<path class="st2" d="M-441.5,194l-0.1,47.2c-0.1,0.1-0.1,0.2-0.2,0.3l0.1-47.2C-441.7,194.2-441.6,194.1-441.5,194"/>
							</g>
							<g id="XMLID_188_">
								<path class="st2" d="M-441.8,194.3l-0.1,47.2c-0.1,0.1-0.2,0.3-0.4,0.4l0.1-47.2C-442,194.5-441.9,194.4-441.8,194.3"/>
							</g>
							<g id="XMLID_187_">
								<path class="st2" d="M-442.1,194.7l-0.1,47.2c-0.2,0.2-0.4,0.4-0.7,0.5l0.1-47.2C-442.6,195-442.2,194.9-442.1,194.7"/>
							</g>
							<g id="XMLID_186_">
								<path class="st2" d="M-442.8,195.2l-0.1,47.2c0,0,0,0-0.1,0L-442.8,195.2C-442.9,195.2-442.8,195.2-442.8,195.2"/>
							</g>
						</g>
					</g>
				</g>
			</g>
		</g>
		<g id="XMLID_180_" class="st1">
			<g>
				<g>
					<g>
						<defs>
							<path id="SVGID_3_" d="M-519.2,240.1l0.1-47.2c0,0.8,0.6,1.7,1.7,2.3l-0.1,47.2C-518.8,241.8-519.2,240.9-519.2,240.1z"/>
						</defs>
						<clipPath id="SVGID_4_">
							<use xlink:href="#SVGID_3_"  style="overflow:visible;"/>
						</clipPath>
						<g id="XMLID_181_" class="st4">
							<g id="XMLID_182_">
								<path class="st5" d="M-517.5,195.2l-0.1,47.2c-1.1-0.6-1.7-1.5-1.7-2.3l0.1-47.2C-519,193.8-518.5,194.6-517.5,195.2"/>
							</g>
						</g>
					</g>
				</g>
			</g>
		</g>
		<g id="XMLID_177_">
			<g id="XMLID_178_">
				<polygon class="st2" points="-442.9,195.2 -443,242.4 -476.2,261.7 -476.1,214.5 				"/>
			</g>
		</g>
		<g id="XMLID_173_">
			<g id="XMLID_174_">
				<polygon class="st2" points="-484.1,214.5 -484.2,261.7 -517.5,242.4 -517.5,195.2 				"/>
			</g>
		</g>
		<g id="XMLID_146_">
			<g id="XMLID_147_">
				<path class="st6" d="M-442.9,190.6c2.2,1.3,2.2,3.4,0,4.6l-33.2,19.3c-2.2,1.3-5.8,1.3-8,0l-33.4-19.3c-2.2-1.3-2.2-3.4,0-4.6
					l33.2-19.3c2.2-1.3,5.8-1.3,8,0L-442.9,190.6z"/>
			</g>
		</g>
		<g id="XMLID_44_" class="st1">
			<g>
				<path id="SVGID_11_" class="st2" d="M-476.1,214.5l-0.1,47.2c-2.2,1.3-5.8,1.3-8,0l0.1-47.2
					C-481.9,215.8-478.2,215.8-476.1,214.5z"/>
			</g>
			<g>
				<g>
					<g>
						<defs>
							<path id="SVGID_5_" d="M-476.1,214.5l-0.1,47.2c-2.2,1.3-5.8,1.3-8,0l0.1-47.2C-481.9,215.8-478.2,215.8-476.1,214.5z"/>
						</defs>
						<clipPath id="SVGID_6_">
							<use xlink:href="#SVGID_5_"  style="overflow:visible;"/>
						</clipPath>
						<g id="XMLID_133_" class="st7">
							<g id="XMLID_145_">
								<path class="st2" d="M-476.1,214.5l-0.1,47.2c-0.4,0.2-0.8,0.4-1.2,0.5l0.1-47.2C-476.9,214.9-476.5,214.8-476.1,214.5"/>
							</g>
							<g id="XMLID_144_">
								<path class="st2" d="M-477.2,215.1l-0.1,47.2c-0.3,0.1-0.7,0.2-1.1,0.3l0.1-47.2C-478,215.3-477.7,215.2-477.2,215.1"/>
							</g>
							<g id="XMLID_142_">
								<path class="st2" d="M-478.2,215.4l-0.1,47.2c-0.2,0-0.5,0.1-0.7,0.1l0.1-47.2C-478.9,215.4-478.7,215.4-478.2,215.4"/>
							</g>
							<g id="XMLID_141_">
								<path class="st2" d="M-479.1,215.5l-0.1,47.2c-0.2,0-0.4,0-0.6,0l0.1-47.2C-479.6,215.5-479.2,215.5-479.1,215.5"/>
							</g>
							<g id="XMLID_140_">
								<path class="st2" d="M-479.8,215.5l-0.1,47.2c-0.2,0-0.4,0-0.6,0l0.1-47.2C-480.2,215.5-480,215.5-479.8,215.5"/>
							</g>
							<g id="XMLID_139_">
								<path class="st2" d="M-480.2,215.5l-0.1,47.2c-0.2,0-0.4,0-0.6,0l0.1-47.2C-480.7,215.5-480.5,215.5-480.2,215.5"/>
							</g>
							<g id="XMLID_138_">
								<path class="st2" d="M-480.9,215.5l-0.1,47.2c-0.2,0-0.4,0-0.6-0.1l0.1-47.2C-481.2,215.4-481.1,215.5-480.9,215.5"/>
							</g>
							<g id="XMLID_137_">
								<path class="st2" d="M-481.5,215.4l-0.1,47.2c-0.2,0-0.4-0.1-0.6-0.1l0.1-47.2C-481.8,215.4-481.6,215.4-481.5,215.4"/>
							</g>
							<g id="XMLID_136_">
								<path class="st2" d="M-482,215.3l-0.1,47.2c-0.2,0-0.4-0.1-0.6-0.1l0.1-47.2C-482.2,215.2-482.2,215.3-482,215.3"/>
							</g>
							<g id="XMLID_135_">
								<path class="st2" d="M-482.6,215.2l-0.1,47.2c-0.2-0.1-0.5-0.1-0.7-0.2l0.1-47.2C-483.1,215-482.8,215.1-482.6,215.2"/>
							</g>
							<g id="XMLID_134_">
								<path class="st2" d="M-483.2,214.9l-0.1,47.2c-0.3-0.1-0.6-0.2-0.8-0.4l0.1-47.2C-483.9,214.7-483.6,214.8-483.2,214.9"/>
							</g>
						</g>
					</g>
				</g>
			</g>
		</g>
	</g>
</g>
<path id="SVGID_19_" class="st8" d="M-492.1,176.9l-0.3,94.3c0,0.8-0.6,1.7-1.7,2.3l0.3-94.3C-492.7,178.6-492.1,177.7-492.1,176.9z
	"/>
<g>
	<g>
		<g>
			<defs>
				<path id="SVGID_8_" d="M-492.1,176.9l-0.3,94.3c0,0.8-0.6,1.7-1.7,2.3l0.3-94.3C-492.7,178.6-492.1,177.7-492.1,176.9z"/>
			</defs>
			<clipPath id="SVGID_9_">
				<use xlink:href="#SVGID_8_"  style="overflow:visible;"/>
			</clipPath>
			<g id="XMLID_79_" class="st9">
				<path class="st8" d="M-492.1,176.9l-0.3,94.3l0,0L-492.1,176.9L-492.1,176.9"/>
			</g>
		</g>
	</g>
	<g>
		<g>
			<defs>
				<path id="SVGID_10_" d="M-492.1,176.9l-0.3,94.3c0,0.8-0.6,1.7-1.7,2.3l0.3-94.3C-492.7,178.6-492.1,177.7-492.1,176.9z"/>
			</defs>
			<clipPath id="SVGID_12_">
				<use xlink:href="#SVGID_10_"  style="overflow:visible;"/>
			</clipPath>
			<g id="XMLID_78_" class="st10">
				<path class="st8" d="M-492.1,176.9l-0.3,94.3c0,0.1,0,0.2,0,0.3l0.3-94.3C-492.2,177.2-492.2,177.1-492.1,176.9"/>
			</g>
		</g>
	</g>
	<g>
		<g>
			<defs>
				<path id="SVGID_13_" d="M-492.1,176.9l-0.3,94.3c0,0.8-0.6,1.7-1.7,2.3l0.3-94.3C-492.7,178.6-492.1,177.7-492.1,176.9z"/>
			</defs>
			<clipPath id="SVGID_14_">
				<use xlink:href="#SVGID_13_"  style="overflow:visible;"/>
			</clipPath>
			<g id="XMLID_77_" class="st11">
				<path class="st8" d="M-492.2,177.3l-0.3,94.3c0,0.1-0.1,0.2-0.1,0.3l0.3-94.3C-492.2,177.5-492.2,177.4-492.2,177.3"/>
			</g>
		</g>
	</g>
	<g>
		<g>
			<defs>
				<path id="SVGID_15_" d="M-492.1,176.9l-0.3,94.3c0,0.8-0.6,1.7-1.7,2.3l0.3-94.3C-492.7,178.6-492.1,177.7-492.1,176.9z"/>
			</defs>
			<clipPath id="SVGID_16_">
				<use xlink:href="#SVGID_15_"  style="overflow:visible;"/>
			</clipPath>
			<g id="XMLID_76_" class="st12">
				<path class="st8" d="M-492.2,177.6l-0.3,94.3c0,0.1-0.1,0.2-0.2,0.3l0.3-94.3C-492.2,177.8-492.2,177.7-492.2,177.6"/>
			</g>
		</g>
	</g>
	<g>
		<g>
			<defs>
				<path id="SVGID_17_" d="M-492.1,176.9l-0.3,94.3c0,0.8-0.6,1.7-1.7,2.3l0.3-94.3C-492.7,178.6-492.1,177.7-492.1,176.9z"/>
			</defs>
			<clipPath id="SVGID_18_">
				<use xlink:href="#SVGID_17_"  style="overflow:visible;"/>
			</clipPath>
			<g id="XMLID_75_" class="st13">
				<path class="st8" d="M-492.2,177.9l-0.3,94.3c-0.1,0.1-0.1,0.2-0.2,0.3l0.3-94.3C-492.6,178.1-492.5,178-492.2,177.9"/>
			</g>
		</g>
	</g>
	<g>
		<g>
			<defs>
				<path id="SVGID_20_" d="M-492.1,176.9l-0.3,94.3c0,0.8-0.6,1.7-1.7,2.3l0.3-94.3C-492.7,178.6-492.1,177.7-492.1,176.9z"/>
			</defs>
			<clipPath id="SVGID_22_">
				<use xlink:href="#SVGID_20_"  style="overflow:visible;"/>
			</clipPath>
			<g id="XMLID_74_" class="st14">
				<path class="st8" d="M-492.7,178.3l-0.3,94.3c-0.1,0.1-0.2,0.3-0.4,0.4l0.3-94.3C-492.9,178.5-492.8,178.4-492.7,178.3"/>
			</g>
		</g>
	</g>
	<g>
		<g>
			<defs>
				<path id="SVGID_24_" d="M-492.1,176.9l-0.3,94.3c0,0.8-0.6,1.7-1.7,2.3l0.3-94.3C-492.7,178.6-492.1,177.7-492.1,176.9z"/>
			</defs>
			<clipPath id="SVGID_26_">
				<use xlink:href="#SVGID_24_"  style="overflow:visible;"/>
			</clipPath>
			<g id="XMLID_73_" class="st15">
				<path class="st8" d="M-493,178.6l-0.3,94.3c-0.2,0.2-0.4,0.4-0.7,0.5l0.3-94.3C-493.5,179-493.2,178.8-493,178.6"/>
			</g>
		</g>
	</g>
	<g>
		<g>
			<defs>
				<path id="SVGID_28_" d="M-492.1,176.9l-0.3,94.3c0,0.8-0.6,1.7-1.7,2.3l0.3-94.3C-492.7,178.6-492.1,177.7-492.1,176.9z"/>
			</defs>
			<clipPath id="SVGID_29_">
				<use xlink:href="#SVGID_28_"  style="overflow:visible;"/>
			</clipPath>
			<g id="XMLID_72_" class="st16">
				<path class="st8" d="M-493.7,179.2l-0.3,94.3c0,0,0,0-0.1,0L-493.7,179.2C-493.8,179.2-493.8,179.2-493.7,179.2"/>
			</g>
		</g>
	</g>
</g>
<path id="SVGID_21_" class="st8" d="M-570.2,271.2l0.3-94.3c0,0.8,0.6,1.7,1.7,2.3l-0.3,94.3C-569.8,272.9-570.2,272-570.2,271.2z"
	/>
<g>
	<g>
		<g>
			<defs>
				<path id="SVGID_30_" d="M-570.2,271.2l0.3-94.3c0,0.8,0.6,1.7,1.7,2.3l-0.3,94.3C-569.8,272.9-570.2,272-570.2,271.2z"/>
			</defs>
			<clipPath id="SVGID_31_">
				<use xlink:href="#SVGID_30_"  style="overflow:visible;"/>
			</clipPath>
			<g id="XMLID_68_" class="st17">
				<path class="st8" d="M-568.2,179.2l-0.3,94.3c-1.1-0.6-1.7-1.5-1.7-2.3l0.3-94.3C-570,177.7-569.5,178.6-568.2,179.2"/>
			</g>
		</g>
	</g>
</g>
<polygon class="st8" points="-493.8,179.2 -494.1,273.5 -527.2,292.8 -527,198.5 "/>
<polygon class="st8" points="-535,198.5 -535.2,292.8 -568.5,273.5 -568.2,179.2 "/>
<path id="SVGID_23_" class="st8" d="M-527,198.5l-0.3,94.3c-2.2,1.3-5.8,1.3-8,0l0.3-94.3C-532.8,199.8-529,199.8-527,198.5z"/>
<g>
	<g>
		<g>
			<defs>
				<path id="SVGID_32_" d="M-527,198.5l-0.3,94.3c-2.2,1.3-5.8,1.3-8,0l0.3-94.3C-532.8,199.8-529,199.8-527,198.5z"/>
			</defs>
			<clipPath id="SVGID_34_">
				<use xlink:href="#SVGID_32_"  style="overflow:visible;"/>
			</clipPath>
			<g id="XMLID_48_" class="st18">
				<path class="st8" d="M-527,198.5l-0.3,94.3c-0.4,0.2-0.8,0.4-1.2,0.5l0.3-94.3C-527.8,198.9-527.2,198.7-527,198.5"/>
			</g>
		</g>
	</g>
	<g>
		<g>
			<defs>
				<path id="SVGID_36_" d="M-527,198.5l-0.3,94.3c-2.2,1.3-5.8,1.3-8,0l0.3-94.3C-532.8,199.8-529,199.8-527,198.5z"/>
			</defs>
			<clipPath id="SVGID_37_">
				<use xlink:href="#SVGID_36_"  style="overflow:visible;"/>
			</clipPath>
			<g id="XMLID_43_" class="st19">
				<path class="st8" d="M-528,199l-0.3,94.3c-0.3,0.1-0.7,0.2-1.1,0.3l0.3-94.3C-528.9,199.3-528.5,199.2-528,199"/>
			</g>
		</g>
	</g>
	<g>
		<g>
			<defs>
				<path id="SVGID_38_" d="M-527,198.5l-0.3,94.3c-2.2,1.3-5.8,1.3-8,0l0.3-94.3C-532.8,199.8-529,199.8-527,198.5z"/>
			</defs>
			<clipPath id="SVGID_39_">
				<use xlink:href="#SVGID_38_"  style="overflow:visible;"/>
			</clipPath>
			<g id="XMLID_41_" class="st20">
				<path class="st8" d="M-529.2,199.3l-0.3,94.3c-0.2,0-0.5,0.1-0.7,0.1l0.3-94.3C-529.8,199.4-529.5,199.4-529.2,199.3"/>
			</g>
		</g>
	</g>
	<g>
		<g>
			<defs>
				<path id="SVGID_40_" d="M-527,198.5l-0.3,94.3c-2.2,1.3-5.8,1.3-8,0l0.3-94.3C-532.8,199.8-529,199.8-527,198.5z"/>
			</defs>
			<clipPath id="SVGID_41_">
				<use xlink:href="#SVGID_40_"  style="overflow:visible;"/>
			</clipPath>
			<g id="XMLID_32_" class="st21">
				<path class="st8" d="M-530,199.4l-0.3,94.3c-0.2,0-0.4,0-0.6,0l0.3-94.3C-530.5,199.5-530.2,199.4-530,199.4"/>
			</g>
		</g>
	</g>
	<g>
		<g>
			<defs>
				<path id="SVGID_42_" d="M-527,198.5l-0.3,94.3c-2.2,1.3-5.8,1.3-8,0l0.3-94.3C-532.8,199.8-529,199.8-527,198.5z"/>
			</defs>
			<clipPath id="SVGID_43_">
				<use xlink:href="#SVGID_42_"  style="overflow:visible;"/>
			</clipPath>
			<g id="XMLID_19_" class="st22">
				<path class="st8" d="M-530.5,199.5l-0.3,94.3c-0.2,0-0.4,0-0.6,0l0.3-94.3C-531,199.5-530.9,199.5-530.5,199.5"/>
			</g>
		</g>
	</g>
	<g>
		<g>
			<defs>
				<path id="SVGID_44_" d="M-527,198.5l-0.3,94.3c-2.2,1.3-5.8,1.3-8,0l0.3-94.3C-532.8,199.8-529,199.8-527,198.5z"/>
			</defs>
			<clipPath id="SVGID_46_">
				<use xlink:href="#SVGID_44_"  style="overflow:visible;"/>
			</clipPath>
			<g id="XMLID_16_" class="st23">
				<path class="st8" d="M-531.2,199.5l-0.3,94.3c-0.2,0-0.4,0-0.6,0l0.3-94.3C-531.5,199.4-531.2,199.5-531.2,199.5"/>
			</g>
		</g>
	</g>
	<g>
		<g>
			<defs>
				<path id="SVGID_47_" d="M-527,198.5l-0.3,94.3c-2.2,1.3-5.8,1.3-8,0l0.3-94.3C-532.8,199.8-529,199.8-527,198.5z"/>
			</defs>
			<clipPath id="SVGID_48_">
				<use xlink:href="#SVGID_47_"  style="overflow:visible;"/>
			</clipPath>
			<g id="XMLID_15_" class="st24">
				<path class="st8" d="M-531.8,199.4l-0.3,94.3c-0.2,0-0.4,0-0.6-0.1l0.3-94.3C-532,199.4-532,199.4-531.8,199.4"/>
			</g>
		</g>
	</g>
	<g>
		<g>
			<defs>
				<path id="SVGID_49_" d="M-527,198.5l-0.3,94.3c-2.2,1.3-5.8,1.3-8,0l0.3-94.3C-532.8,199.8-529,199.8-527,198.5z"/>
			</defs>
			<clipPath id="SVGID_50_">
				<use xlink:href="#SVGID_49_"  style="overflow:visible;"/>
			</clipPath>
			<g id="XMLID_13_" class="st25">
				<path class="st8" d="M-532.2,199.4l-0.3,94.3c-0.2,0-0.4-0.1-0.6-0.1l0.3-94.3C-532.5,199.3-532.5,199.3-532.2,199.4"/>
			</g>
		</g>
	</g>
	<g>
		<g>
			<defs>
				<path id="SVGID_51_" d="M-527,198.5l-0.3,94.3c-2.2,1.3-5.8,1.3-8,0l0.3-94.3C-532.8,199.8-529,199.8-527,198.5z"/>
			</defs>
			<clipPath id="SVGID_52_">
				<use xlink:href="#SVGID_51_"  style="overflow:visible;"/>
			</clipPath>
			<g id="XMLID_11_" class="st26">
				<path class="st8" d="M-532.9,199.3l-0.3,94.3c-0.2,0-0.4-0.1-0.6-0.1l0.3-94.3C-533.2,199.2-533,199.2-532.9,199.3"/>
			</g>
		</g>
	</g>
	<g>
		<g>
			<defs>
				<path id="SVGID_53_" d="M-527,198.5l-0.3,94.3c-2.2,1.3-5.8,1.3-8,0l0.3-94.3C-532.8,199.8-529,199.8-527,198.5z"/>
			</defs>
			<clipPath id="SVGID_54_">
				<use xlink:href="#SVGID_53_"  style="overflow:visible;"/>
			</clipPath>
			<g id="XMLID_10_" class="st27">
				<path class="st8" d="M-533.5,199.1l-0.3,94.3c-0.2-0.1-0.5-0.1-0.7-0.2l0.3-94.3C-534,199-533.8,199.1-533.5,199.1"/>
			</g>
		</g>
	</g>
	<g>
		<g>
			<defs>
				<path id="SVGID_55_" d="M-527,198.5l-0.3,94.3c-2.2,1.3-5.8,1.3-8,0l0.3-94.3C-532.8,199.8-529,199.8-527,198.5z"/>
			</defs>
			<clipPath id="SVGID_56_">
				<use xlink:href="#SVGID_55_"  style="overflow:visible;"/>
			</clipPath>
			<g id="XMLID_7_" class="st28">
				<path class="st8" d="M-534,198.9l-0.3,94.3c-0.3-0.1-0.6-0.2-0.8-0.4l0.3-94.3C-534.8,198.7-534.5,198.8-534,198.9"/>
			</g>
		</g>
	</g>
</g>
<path id="SVGID_25_" class="st8" d="M-492.1,176.9l-0.3,94.3c0,0.8-0.6,1.7-1.7,2.3l0.3-94.3C-492.7,178.6-492.1,177.7-492.1,176.9z
	"/>
<g>
	<g>
		<g>
			<defs>
				<path id="SVGID_57_" d="M-492.1,176.9l-0.3,94.3c0,0.8-0.6,1.7-1.7,2.3l0.3-94.3C-492.7,178.6-492.1,177.7-492.1,176.9z"/>
			</defs>
			<clipPath id="SVGID_58_">
				<use xlink:href="#SVGID_57_"  style="overflow:visible;"/>
			</clipPath>
			<g id="XMLID_131_" class="st29">
				<path class="st8" d="M-492.1,176.9l-0.3,94.3l0,0L-492.1,176.9L-492.1,176.9"/>
			</g>
		</g>
	</g>
	<g>
		<g>
			<defs>
				<path id="SVGID_59_" d="M-492.1,176.9l-0.3,94.3c0,0.8-0.6,1.7-1.7,2.3l0.3-94.3C-492.7,178.6-492.1,177.7-492.1,176.9z"/>
			</defs>
			<clipPath id="SVGID_60_">
				<use xlink:href="#SVGID_59_"  style="overflow:visible;"/>
			</clipPath>
			<g id="XMLID_130_" class="st30">
				<path class="st8" d="M-492.1,176.9l-0.3,94.3c0,0.1,0,0.2,0,0.3l0.3-94.3C-492.2,177.2-492.2,177.1-492.1,176.9"/>
			</g>
		</g>
	</g>
	<g>
		<g>
			<defs>
				<path id="SVGID_61_" d="M-492.1,176.9l-0.3,94.3c0,0.8-0.6,1.7-1.7,2.3l0.3-94.3C-492.7,178.6-492.1,177.7-492.1,176.9z"/>
			</defs>
			<clipPath id="SVGID_62_">
				<use xlink:href="#SVGID_61_"  style="overflow:visible;"/>
			</clipPath>
			<g id="XMLID_129_" class="st31">
				<path class="st8" d="M-492.2,177.3l-0.3,94.3c0,0.1-0.1,0.2-0.1,0.3l0.3-94.3C-492.2,177.5-492.2,177.4-492.2,177.3"/>
			</g>
		</g>
	</g>
	<g>
		<g>
			<defs>
				<path id="SVGID_63_" d="M-492.1,176.9l-0.3,94.3c0,0.8-0.6,1.7-1.7,2.3l0.3-94.3C-492.7,178.6-492.1,177.7-492.1,176.9z"/>
			</defs>
			<clipPath id="SVGID_64_">
				<use xlink:href="#SVGID_63_"  style="overflow:visible;"/>
			</clipPath>
			<g id="XMLID_128_" class="st32">
				<path class="st8" d="M-492.2,177.6l-0.3,94.3c0,0.1-0.1,0.2-0.2,0.3l0.3-94.3C-492.2,177.8-492.2,177.7-492.2,177.6"/>
			</g>
		</g>
	</g>
	<g>
		<g>
			<defs>
				<path id="SVGID_65_" d="M-492.1,176.9l-0.3,94.3c0,0.8-0.6,1.7-1.7,2.3l0.3-94.3C-492.7,178.6-492.1,177.7-492.1,176.9z"/>
			</defs>
			<clipPath id="SVGID_66_">
				<use xlink:href="#SVGID_65_"  style="overflow:visible;"/>
			</clipPath>
			<g id="XMLID_127_" class="st33">
				<path class="st8" d="M-492.2,177.9l-0.3,94.3c-0.1,0.1-0.1,0.2-0.2,0.3l0.3-94.3C-492.6,178.1-492.5,178-492.2,177.9"/>
			</g>
		</g>
	</g>
	<g>
		<g>
			<defs>
				<path id="SVGID_67_" d="M-492.1,176.9l-0.3,94.3c0,0.8-0.6,1.7-1.7,2.3l0.3-94.3C-492.7,178.6-492.1,177.7-492.1,176.9z"/>
			</defs>
			<clipPath id="SVGID_68_">
				<use xlink:href="#SVGID_67_"  style="overflow:visible;"/>
			</clipPath>
			<g id="XMLID_126_" class="st34">
				<path class="st8" d="M-492.7,178.3l-0.3,94.3c-0.1,0.1-0.2,0.3-0.4,0.4l0.3-94.3C-492.9,178.5-492.8,178.4-492.7,178.3"/>
			</g>
		</g>
	</g>
	<g>
		<g>
			<defs>
				<path id="SVGID_69_" d="M-492.1,176.9l-0.3,94.3c0,0.8-0.6,1.7-1.7,2.3l0.3-94.3C-492.7,178.6-492.1,177.7-492.1,176.9z"/>
			</defs>
			<clipPath id="SVGID_70_">
				<use xlink:href="#SVGID_69_"  style="overflow:visible;"/>
			</clipPath>
			<g id="XMLID_125_" class="st35">
				<path class="st8" d="M-493,178.6l-0.3,94.3c-0.2,0.2-0.4,0.4-0.7,0.5l0.3-94.3C-493.5,179-493.2,178.8-493,178.6"/>
			</g>
		</g>
	</g>
	<g>
		<g>
			<defs>
				<path id="SVGID_71_" d="M-492.1,176.9l-0.3,94.3c0,0.8-0.6,1.7-1.7,2.3l0.3-94.3C-492.7,178.6-492.1,177.7-492.1,176.9z"/>
			</defs>
			<clipPath id="SVGID_72_">
				<use xlink:href="#SVGID_71_"  style="overflow:visible;"/>
			</clipPath>
			<g id="XMLID_124_" class="st36">
				<path class="st8" d="M-493.7,179.2l-0.3,94.3c0,0,0,0-0.1,0L-493.7,179.2C-493.8,179.2-493.8,179.2-493.7,179.2"/>
			</g>
		</g>
	</g>
</g>
<path id="SVGID_27_" class="st8" d="M-570.2,271.2l0.3-94.3c0,0.8,0.6,1.7,1.7,2.3l-0.3,94.3C-569.8,272.9-570.2,272-570.2,271.2z"
	/>
<g>
	<g>
		<g>
			<defs>
				<path id="SVGID_73_" d="M-570.2,271.2l0.3-94.3c0,0.8,0.6,1.7,1.7,2.3l-0.3,94.3C-569.8,272.9-570.2,272-570.2,271.2z"/>
			</defs>
			<clipPath id="SVGID_74_">
				<use xlink:href="#SVGID_73_"  style="overflow:visible;"/>
			</clipPath>
			<g id="XMLID_120_" class="st37">
				<path class="st8" d="M-568.2,179.2l-0.3,94.3c-1.1-0.6-1.7-1.5-1.7-2.3l0.3-94.3C-570,177.7-569.5,178.6-568.2,179.2"/>
			</g>
		</g>
	</g>
</g>
<polygon class="st8" points="-493.8,179.2 -494.1,273.5 -527.2,292.8 -527,198.5 "/>
<polygon class="st8" points="-535,198.5 -535.2,292.8 -568.5,273.5 -568.2,179.2 "/>
<path class="st38" d="M-493.8,174.6c2.2,1.3,2.2,3.4,0,4.6l-33.2,19.3c-2.2,1.3-5.8,1.3-8,0l-33.4-19.3c-2.2-1.3-2.2-3.4,0-4.6
	l33.2-19.3c2.2-1.3,5.8-1.3,8,0L-493.8,174.6z"/>
<g>
	<g>
		<g>
			<defs>
				<path id="SVGID_75_" d="M-527,198.5l-0.3,94.3c-2.2,1.3-5.8,1.3-8,0l0.3-94.3C-532.8,199.8-529,199.8-527,198.5z"/>
			</defs>
			<clipPath id="SVGID_76_">
				<use xlink:href="#SVGID_75_"  style="overflow:visible;"/>
			</clipPath>
			<g id="XMLID_110_" class="st39">
				<path class="st8" d="M-527,198.5l-0.3,94.3c-0.4,0.2-0.8,0.4-1.2,0.5l0.3-94.3C-527.8,198.9-527.2,198.7-527,198.5"/>
			</g>
		</g>
	</g>
	<g>
		<g>
			<defs>
				<path id="SVGID_77_" d="M-527,198.5l-0.3,94.3c-2.2,1.3-5.8,1.3-8,0l0.3-94.3C-532.8,199.8-529,199.8-527,198.5z"/>
			</defs>
			<clipPath id="SVGID_78_">
				<use xlink:href="#SVGID_77_"  style="overflow:visible;"/>
			</clipPath>
			<g id="XMLID_109_" class="st40">
				<path class="st8" d="M-528,199l-0.3,94.3c-0.3,0.1-0.7,0.2-1.1,0.3l0.3-94.3C-528.9,199.3-528.5,199.2-528,199"/>
			</g>
		</g>
	</g>
	<g>
		<g>
			<defs>
				<path id="SVGID_79_" d="M-527,198.5l-0.3,94.3c-2.2,1.3-5.8,1.3-8,0l0.3-94.3C-532.8,199.8-529,199.8-527,198.5z"/>
			</defs>
			<clipPath id="SVGID_80_">
				<use xlink:href="#SVGID_79_"  style="overflow:visible;"/>
			</clipPath>
			<g id="XMLID_98_" class="st41">
				<path class="st8" d="M-529.2,199.3l-0.3,94.3c-0.2,0-0.5,0.1-0.7,0.1l0.3-94.3C-529.8,199.4-529.5,199.4-529.2,199.3"/>
			</g>
		</g>
	</g>
	<g>
		<g>
			<defs>
				<path id="SVGID_81_" d="M-527,198.5l-0.3,94.3c-2.2,1.3-5.8,1.3-8,0l0.3-94.3C-532.8,199.8-529,199.8-527,198.5z"/>
			</defs>
			<clipPath id="SVGID_82_">
				<use xlink:href="#SVGID_81_"  style="overflow:visible;"/>
			</clipPath>
			<g id="XMLID_97_" class="st42">
				<path class="st8" d="M-530,199.4l-0.3,94.3c-0.2,0-0.4,0-0.6,0l0.3-94.3C-530.5,199.5-530.2,199.4-530,199.4"/>
			</g>
		</g>
	</g>
	<g>
		<g>
			<defs>
				<path id="SVGID_83_" d="M-527,198.5l-0.3,94.3c-2.2,1.3-5.8,1.3-8,0l0.3-94.3C-532.8,199.8-529,199.8-527,198.5z"/>
			</defs>
			<clipPath id="SVGID_84_">
				<use xlink:href="#SVGID_83_"  style="overflow:visible;"/>
			</clipPath>
			<g id="XMLID_96_" class="st43">
				<path class="st8" d="M-530.5,199.5l-0.3,94.3c-0.2,0-0.4,0-0.6,0l0.3-94.3C-531,199.5-530.9,199.5-530.5,199.5"/>
			</g>
		</g>
	</g>
	<g>
		<g>
			<defs>
				<path id="SVGID_85_" d="M-527,198.5l-0.3,94.3c-2.2,1.3-5.8,1.3-8,0l0.3-94.3C-532.8,199.8-529,199.8-527,198.5z"/>
			</defs>
			<clipPath id="SVGID_86_">
				<use xlink:href="#SVGID_85_"  style="overflow:visible;"/>
			</clipPath>
			<g id="XMLID_95_" class="st44">
				<path class="st8" d="M-531.2,199.5l-0.3,94.3c-0.2,0-0.4,0-0.6,0l0.3-94.3C-531.5,199.4-531.2,199.5-531.2,199.5"/>
			</g>
		</g>
	</g>
	<g>
		<g>
			<defs>
				<path id="SVGID_87_" d="M-527,198.5l-0.3,94.3c-2.2,1.3-5.8,1.3-8,0l0.3-94.3C-532.8,199.8-529,199.8-527,198.5z"/>
			</defs>
			<clipPath id="SVGID_88_">
				<use xlink:href="#SVGID_87_"  style="overflow:visible;"/>
			</clipPath>
			<g id="XMLID_94_" class="st45">
				<path class="st8" d="M-531.8,199.4l-0.3,94.3c-0.2,0-0.4,0-0.6-0.1l0.3-94.3C-532,199.4-532,199.4-531.8,199.4"/>
			</g>
		</g>
	</g>
	<g>
		<g>
			<defs>
				<path id="SVGID_89_" d="M-527,198.5l-0.3,94.3c-2.2,1.3-5.8,1.3-8,0l0.3-94.3C-532.8,199.8-529,199.8-527,198.5z"/>
			</defs>
			<clipPath id="SVGID_90_">
				<use xlink:href="#SVGID_89_"  style="overflow:visible;"/>
			</clipPath>
			<g id="XMLID_93_" class="st46">
				<path class="st8" d="M-532.2,199.4l-0.3,94.3c-0.2,0-0.4-0.1-0.6-0.1l0.3-94.3C-532.5,199.3-532.5,199.3-532.2,199.4"/>
			</g>
		</g>
	</g>
	<g>
		<g>
			<defs>
				<path id="SVGID_91_" d="M-527,198.5l-0.3,94.3c-2.2,1.3-5.8,1.3-8,0l0.3-94.3C-532.8,199.8-529,199.8-527,198.5z"/>
			</defs>
			<clipPath id="SVGID_92_">
				<use xlink:href="#SVGID_91_"  style="overflow:visible;"/>
			</clipPath>
			<g id="XMLID_92_" class="st47">
				<path class="st8" d="M-532.9,199.3l-0.3,94.3c-0.2,0-0.4-0.1-0.6-0.1l0.3-94.3C-533.2,199.2-533,199.2-532.9,199.3"/>
			</g>
		</g>
	</g>
	<g>
		<g>
			<defs>
				<path id="SVGID_93_" d="M-527,198.5l-0.3,94.3c-2.2,1.3-5.8,1.3-8,0l0.3-94.3C-532.8,199.8-529,199.8-527,198.5z"/>
			</defs>
			<clipPath id="SVGID_94_">
				<use xlink:href="#SVGID_93_"  style="overflow:visible;"/>
			</clipPath>
			<g id="XMLID_34_" class="st48">
				<path class="st8" d="M-533.5,199.1l-0.3,94.3c-0.2-0.1-0.5-0.1-0.7-0.2l0.3-94.3C-534,199-533.8,199.1-533.5,199.1"/>
			</g>
		</g>
	</g>
	<g>
		<g>
			<defs>
				<path id="SVGID_95_" d="M-527,198.5l-0.3,94.3c-2.2,1.3-5.8,1.3-8,0l0.3-94.3C-532.8,199.8-529,199.8-527,198.5z"/>
			</defs>
			<clipPath id="SVGID_96_">
				<use xlink:href="#SVGID_95_"  style="overflow:visible;"/>
			</clipPath>
			<g id="XMLID_31_" class="st49">
				<path class="st8" d="M-534,198.9l-0.3,94.3c-0.3-0.1-0.6-0.2-0.8-0.4l0.3-94.3C-534.8,198.7-534.5,198.8-534,198.9"/>
			</g>
		</g>
	</g>
</g>
<g id="XMLID_14_">
	<g id="XMLID_22_" class="st1">
		<g id="XMLID_64_" class="st1">
			<g>
				<g>
					<path id="SVGID_45_" class="st50" d="M-543.5,242.4l-0.1,59.9c0,0.8-0.6,1.7-1.7,2.3l0.1-59.9
						C-544,244.1-543.5,243.2-543.5,242.4z"/>
				</g>
				<g>
					<g>
						<defs>
							<path id="SVGID_97_" d="M-543.5,242.4l-0.1,59.9c0,0.8-0.6,1.7-1.7,2.3l0.1-59.9C-544,244.1-543.5,243.2-543.5,242.4z"/>
						</defs>
						<clipPath id="SVGID_98_">
							<use xlink:href="#SVGID_97_"  style="overflow:visible;"/>
						</clipPath>
						<g id="XMLID_81_" class="st51">
							<g id="XMLID_1_">
								<path class="st50" d="M-543.5,242.4l-0.1,59.9l0,0L-543.5,242.4L-543.5,242.4"/>
							</g>
							<g id="XMLID_89_">
								<path class="st50" d="M-543.5,242.5l-0.1,59.9c0,0.1,0,0.2,0,0.3l0.1-59.9C-543.5,242.7-543.5,242.6-543.5,242.5"/>
							</g>
							<g id="XMLID_88_">
								<path class="st50" d="M-543.5,242.8l-0.1,59.9c0,0.1-0.1,0.2-0.1,0.3l0.1-59.9C-543.5,243-543.5,242.9-543.5,242.8"/>
							</g>
							<g id="XMLID_87_">
								<path class="st50" d="M-543.5,243.1l-0.1,59.9c0,0.1-0.1,0.2-0.2,0.3l0.1-59.9C-543.5,243.3-543.5,243.2-543.5,243.1"/>
							</g>
							<g id="XMLID_86_">
								<path class="st50" d="M-543.8,243.4l-0.1,59.9c-0.1,0.1-0.1,0.2-0.2,0.3l0.1-59.9C-543.9,243.7-543.8,243.5-543.8,243.4"/>
							</g>
							<g id="XMLID_84_">
								<path class="st50" d="M-544,243.8l-0.1,59.9c-0.1,0.1-0.2,0.3-0.4,0.4l0.1-59.9C-544,244-544,243.9-544,243.8"/>
							</g>
							<g id="XMLID_83_">
								<path class="st50" d="M-544.2,244.1l-0.1,59.9c-0.2,0.2-0.4,0.4-0.7,0.5l0.1-59.9C-544.8,244.5-544.5,244.3-544.2,244.1"/>
							</g>
							<g id="XMLID_82_">
								<path class="st50" d="M-545,244.7l-0.1,59.9c0,0,0,0-0.1,0L-545,244.7L-545,244.7"/>
							</g>
						</g>
					</g>
				</g>
			</g>
		</g>
		<g id="XMLID_58_" class="st1">
			<g>
				<path id="SVGID_33_" class="st50" d="M-621.5,302.3l0.1-59.9c0,0.8,0.6,1.7,1.7,2.3l-0.1,59.9C-621,304-621.5,303.1-621.5,302.3
					z"/>
			</g>
			<g>
				<g>
					<g>
						<defs>
							<path id="SVGID_99_" d="M-621.5,302.3l0.1-59.9c0,0.8,0.6,1.7,1.7,2.3l-0.1,59.9C-621,304-621.5,303.1-621.5,302.3z"/>
						</defs>
						<clipPath id="SVGID_100_">
							<use xlink:href="#SVGID_99_"  style="overflow:visible;"/>
						</clipPath>
						<g id="XMLID_59_" class="st52">
							<g id="XMLID_61_">
								<path class="st50" d="M-619.8,244.7l-0.1,59.9c-1.1-0.6-1.7-1.5-1.7-2.3l0.1-59.9C-621.5,243.2-620.9,244.1-619.8,244.7"/>
							</g>
						</g>
					</g>
				</g>
			</g>
		</g>
		<g id="XMLID_56_">
			<g id="XMLID_57_">
				<polygon class="st50" points="-545,244.7 -545,304.6 -578.2,323.9 -578.2,264 				"/>
			</g>
		</g>
		<g id="XMLID_50_">
			<g id="XMLID_52_">
				<polygon class="st50" points="-586.2,264 -586.2,323.9 -619.9,304.6 -619.8,244.7 				"/>
			</g>
		</g>
		<g id="XMLID_47_">
			<g id="XMLID_49_">
				<path class="st53" d="M-545,240.1c2.2,1.3,2.2,3.4,0,4.6l-33.2,19.3c-2.2,1.3-5.8,1.3-8,0l-33.4-19.3c-2.2-1.3-2.2-3.4,0-4.6
					l33.2-19.3c2.2-1.3,5.8-1.3,8,0L-545,240.1z"/>
			</g>
		</g>
		<g id="XMLID_23_" class="st1">
			<g>
				<path id="SVGID_35_" class="st50" d="M-578.2,264l-0.1,59.9c-2.2,1.3-5.8,1.3-8,0l0.1-59.9C-584,265.3-580.5,265.3-578.2,264z"
					/>
			</g>
			<g>
				<g>
					<g>
						<defs>
							<path id="SVGID_101_" d="M-578.2,264l-0.1,59.9c-2.2,1.3-5.8,1.3-8,0l0.1-59.9C-584,265.3-580.5,265.3-578.2,264z"/>
						</defs>
						<clipPath id="SVGID_102_">
							<use xlink:href="#SVGID_101_"  style="overflow:visible;"/>
						</clipPath>
						<g id="XMLID_25_" class="st54">
							<g id="XMLID_45_">
								<path class="st50" d="M-578.2,264l-0.1,59.9c-0.4,0.2-0.8,0.4-1.2,0.5l0.1-59.9C-579,264.4-578.5,264.2-578.2,264"/>
							</g>
							<g id="XMLID_42_">
								<path class="st50" d="M-579.5,264.6l-0.1,59.9c-0.3,0.1-0.7,0.2-1.1,0.3l0.1-59.9C-580.2,264.8-579.9,264.7-579.5,264.6"/>
							</g>
							<g id="XMLID_39_">
								<path class="st50" d="M-580.5,264.8l-0.1,59.9c-0.2,0-0.5,0.1-0.7,0.1l0.1-59.9C-581,264.9-580.9,264.9-580.5,264.8"/>
							</g>
							<g id="XMLID_38_">
								<path class="st50" d="M-581.2,264.9l-0.1,59.9c-0.2,0-0.4,0-0.6,0l0.1-59.9C-581.8,265-581.5,265-581.2,264.9"/>
							</g>
							<g id="XMLID_36_">
								<path class="st50" d="M-582,265l-0.1,59.9c-0.2,0-0.4,0-0.6,0l0.1-59.9C-582.2,265-582,265-582,265"/>
							</g>
							<g id="XMLID_35_">
								<path class="st50" d="M-582.5,265l-0.1,59.9c-0.2,0-0.4,0-0.6,0l0.1-59.9C-583,265-582.8,265-582.5,265"/>
							</g>
							<g id="XMLID_33_">
								<path class="st50" d="M-583,264.9l-0.1,59.9c-0.2,0-0.4,0-0.6-0.1l0.1-59.9C-583.5,264.9-583.2,264.9-583,264.9"/>
							</g>
							<g id="XMLID_30_">
								<path class="st50" d="M-583.5,264.9l-0.1,59.9c-0.2,0-0.4-0.1-0.6-0.1l0.1-59.9C-584,264.8-583.9,264.9-583.5,264.9"/>
							</g>
							<g id="XMLID_29_">
								<path class="st50" d="M-584.2,264.8l-0.1,59.9c-0.2,0-0.4-0.1-0.6-0.1l0.1-59.9C-584.5,264.7-584.5,264.7-584.2,264.8"/>
							</g>
							<g id="XMLID_28_">
								<path class="st50" d="M-584.9,264.6l-0.1,59.9c-0.2-0.1-0.5-0.1-0.7-0.2l0.1-59.9C-585.2,264.5-585,264.6-584.9,264.6"/>
							</g>
							<g id="XMLID_27_">
								<path class="st50" d="M-585.5,264.4l-0.1,59.9c-0.3-0.1-0.6-0.2-0.8-0.4l0.1-59.9C-586,264.2-585.8,264.3-585.5,264.4"/>
							</g>
						</g>
					</g>
				</g>
			</g>
		</g>
	</g>
</g>
<path class="st55" d="M-458,320.2l-14.5-14.5c5.7-7.8,8.8-17.2,8.8-27.1c0-25.4-20.7-46.1-46.1-46.1c-0.4,0-0.8,0.3-0.8,0.8
	c0,0.4,0.3,0.8,0.8,0.8c24.5,0,44.4,19.9,44.4,44.4c0,9.4-2.9,18.4-8.4,25.9l-4.8-4.8c4.1-6,6.5-13.3,6.5-21.1
	c0-20.8-16.8-37.6-37.6-37.6s-37.6,16.8-37.6,37.6c0,20.8,16.8,37.6,37.6,37.6c7.8,0,15.1-2.4,21.1-6.5l4.8,4.8
	c-7.5,5.5-16.5,8.4-26.1,8.4c-24.5,0-44.4-19.9-44.4-44.4c0-0.4-0.3-0.8-0.8-0.8c-0.4,0-0.8,0.3-0.8,0.8c0,25.4,20.7,46.1,46.1,46.1
	c9.9,0,19.4-3.1,27.2-8.9l14.5,14.5c2.5,2.5,6.5,2.5,8.9,0l1.1-1.1C-455.5,326.7-455.5,322.7-458,320.2z"/>
<path class="st0" d="M-509.8,251.4c-15,0-27.1,12.1-27.1,27.1s12.1,27.1,27.1,27.1s27.1-12.1,27.1-27.1
	C-482.7,263.5-494.8,251.4-509.8,251.4z"/>
<path class="st2" d="M-509.7,251.4c-1,0-2.1,0.1-3.1,0.2l-9.7,3c-1.2,0.6-2.4,1.4-3.5,2.2l35.9,21.6c2.3,1.4,5,1.6,7.4,0.7
	c0-0.2,0-0.4,0-0.5C-482.5,263.5-494.7,251.4-509.7,251.4z"/>
<path class="st8" d="M-509.8,251.4c-15,0-27.1,12.1-27.1,27.1c0,11,6.5,20.4,15.9,24.7l17.1-10.3c3-1.8,4.9-5.1,4.9-8.7v-30.6
	C-502.2,252.2-505.9,251.4-509.8,251.4z"/>
</svg>
