<?xml version="1.0" encoding="utf-8"?>
<!-- Generator: Adobe Illustrator 19.0.0, SVG Export Plug-In . SVG Version: 6.00 Build 0)  -->
<svg version="1.1" id="Layer_1" xmlns="http://www.w3.org/2000/svg" xmlns:xlink="http://www.w3.org/1999/xlink" x="0px" y="0px"
	 width="233.5px" height="233.5px" viewBox="-648 128.9 233.5 233.5" style="enable-background:new -648 128.9 233.5 233.5;"
	 xml:space="preserve">
<style type="text/css">
	.st0{fill:#F4F2F3;}
	.st1{fill:#FFFFFF;}
	.st2{fill:#E4E5E6;}
	.st3{fill:#002063;}
	.st4{fill:#B0B1B1;}
	.st5{fill:#D6D6D6;}
	.st6{fill:#003CB9;}
	.st7{fill:#F03B58;}
</style>
<circle id="XMLID_858_" class="st0" cx="-531.2" cy="245.6" r="116.7"/>
<path class="st1" d="M-578.2,303.4c-0.9-0.5-0.9-1.4,0-1.9l3.9-2.3c0.9-0.5,2.4-0.5,3.4,0l44.3,25.6c0.9,0.5,0.9,1.4,0,2l-3.9,2.3
	c-0.9,0.5-2.4,0.5-3.4,0L-578.2,303.4 M-565.7,296.1c-0.9-0.5-0.9-1.4,0-1.9l3.9-2.3c0.9-0.5,2.4-0.5,3.4,0l46.8,27
	c0.9,0.5,0.9,1.4,0,2l-3.9,2.3c-0.9,0.5-2.4,0.5-3.4,0L-565.7,296.1 M-553.2,288.9c-0.9-0.5-0.9-1.4,0-1.9l3.9-2.3
	c0.9-0.5,2.4-0.5,3.4,0l46.8,27c0.9,0.5,0.9,1.4,0,2l-3.9,2.3c-0.9,0.5-2.4,0.5-3.4,0L-553.2,288.9 M-540.8,281.7
	c-0.9-0.5-0.9-1.4,0-1.9l3.9-2.3c0.9-0.5,2.4-0.5,3.4,0l46.8,27c0.9,0.5,0.9,1.4,0,2l-3.9,2.3c-0.9,0.5-2.4,0.5-3.4,0L-540.8,281.7
	 M-523.7,271.7c-0.9-0.5-0.9-1.4,0-1.9l3.9-2.3c0.9-0.5,2.4-0.5,3.4,0l46.8,27c0.9,0.5,0.9,1.4,0,1.9l-3.9,2.3
	c-0.9,0.5-2.4,0.5-3.4,0L-523.7,271.7 M-447.6,294.7l-72.1-41.6c-0.8-0.5-2.1-0.5-2.9,0l-82,47.7c-0.8,0.5-0.8,1.2,0,1.7l72.1,41.6
	c0.8,0.5,2.1,0.5,2.9,0l82-47.7C-446.8,295.9-446.8,295.1-447.6,294.7"/>
<path class="st2" d="M-486.7,304.5l-46.8-27c-0.9-0.5-2.4-0.5-3.4,0l-3.9,2.3c-0.9,0.5-0.9,1.4,0,1.9l46.8,27c0.9,0.5,2.4,0.5,3.4,0
	l3.9-2.3C-485.8,305.9-485.8,305-486.7,304.5"/>
<path class="st2" d="M-469.6,294.5l-46.8-27c-0.9-0.5-2.4-0.5-3.4,0l-3.9,2.3c-0.9,0.5-0.9,1.4,0,1.9l46.8,27c0.9,0.5,2.4,0.5,3.4,0
	l3.9-2.3C-468.7,295.9-468.7,295.1-469.6,294.5"/>
<path class="st2" d="M-499.2,311.7l-46.8-27c-0.9-0.5-2.4-0.5-3.4,0l-3.9,2.3c-0.9,0.5-0.9,1.4,0,1.9l46.8,27c0.9,0.5,2.4,0.5,3.4,0
	l3.9-2.3C-498.2,313.1-498.2,312.2-499.2,311.7"/>
<path class="st2" d="M-511.6,318.9l-46.8-27c-0.9-0.5-2.4-0.5-3.4,0l-3.9,2.3c-0.9,0.5-0.9,1.4,0,1.9l46.8,27c0.9,0.5,2.4,0.5,3.4,0
	l3.9-2.3C-510.7,320.4-510.7,319.5-511.6,318.9"/>
<path class="st2" d="M-526.5,324.7l-44.3-25.6c-0.9-0.5-2.4-0.5-3.4,0l-3.9,2.3c-0.9,0.5-0.9,1.4,0,1.9l44.3,25.6
	c0.9,0.5,2.4,0.5,3.4,0l3.9-2.3C-525.7,326.2-525.7,325.3-526.5,324.7"/>
<path id="XMLID_235_" class="st3" d="M-516,300.7c0,2.4-0.8,9.4-13.5,9.4s-13.5-7-13.5-9.4v-3.5l27.1-0.2L-516,300.7L-516,300.7z"/>
<path id="XMLID_230_" class="st4" d="M-509.5,290.2c0,3.6-1.2,13.9-20,13.9s-20-10.3-20-13.9v-5.1l40-0.3V290.2z"/>
<path id="XMLID_238_" class="st5" d="M-529.5,300.3c-18.8,0-20-10.3-20-13.9v2.1c0,3.6,1.2,13.9,20,13.9s20-10.3,20-13.9v-2.1
	C-509.5,290-510.7,300.3-529.5,300.3z"/>
<path id="XMLID_236_" class="st5" d="M-529.5,295.7c-18.8,0-20-10.3-20-13.9v2.1c0,3.6,1.2,13.9,20,13.9s20-10.3,20-13.9v-2.1
	C-509.5,285.4-510.7,295.7-529.5,295.7z"/>
<path id="XMLID_234_" class="st3" d="M-505.9,275.8c0,4.2-1.5,16.4-23.6,16.4c-22.1,0-23.6-12.2-23.6-16.4H-505.9z"/>
<circle id="XMLID_227_" class="st6" cx="-530.8" cy="233.8" r="50.1"/>
<path class="st3" d="M-483.9,192.4c-1.5,0-2.9-0.6-4-1.7c-2.2-2.2-2.2-5.8,0-8.1l4.3-4.3c1.1-1.1,2.6-1.7,4-1.7s2.9,0.6,4,1.7
	c2.2,2.2,2.2,5.8,0,8.1l-4.3,4.3C-480.8,191.7-482.2,192.4-483.9,192.4z M-479.5,178.6c-0.9,0-1.9,0.4-2.6,1.1l-4.3,4.3
	c-1.4,1.5-1.4,3.8,0,5.2c0.7,0.7,1.6,1.1,2.6,1.1c1,0,1.9-0.4,2.5-1.1l4.3-4.3c1.4-1.5,1.4-3.8,0-5.2
	C-477.7,179-478.6,178.6-479.5,178.6z"/>
<path class="st3" d="M-582,290.6c-1.5,0-2.9-0.6-4-1.7c-2.2-2.2-2.2-5.8,0-8.1l4.3-4.3c1.1-1.1,2.6-1.7,4-1.7c1.5,0,2.9,0.6,4,1.7
	c2.2,2.2,2.2,5.8,0,8.1l-4.3,4.3C-579.1,290-580.6,290.6-582,290.6z M-577.7,276.8c-0.9,0-1.9,0.4-2.6,1.1l-4.3,4.3
	c-1.4,1.5-1.4,3.8,0,5.2c0.7,0.7,1.6,1.1,2.6,1.1c0.9,0,1.9-0.4,2.6-1.1l4.3-4.3c1.4-1.5,1.4-3.8,0-5.2
	C-575.9,277.2-576.8,276.8-577.7,276.8z"/>
<path class="st3" d="M-479.5,290.5c-1.5,0-3-0.5-4.1-1.6l-4.3-4.3c-1.1-0.9-1.7-2.4-1.7-4c0-1.5,0.6-2.9,1.7-4
	c2.2-2.2,5.8-2.2,8.1,0l4.3,4.3c1.1,1.1,1.7,2.6,1.7,4c0,1.5-0.6,2.9-1.7,4C-476.5,290-478,290.5-479.5,290.5z M-483.8,276.9
	c-0.9,0-1.9,0.3-2.6,1.1c-0.7,0.7-1.1,1.6-1.1,2.6c0,1,0.4,1.9,1.1,2.5l4.3,4.3c1.5,1.4,3.8,1.4,5.2,0c0.7-0.7,1.1-1.6,1.1-2.6
	c0-0.9-0.4-1.9-1.1-2.6l-4.3-4.3C-481.9,277.3-482.9,276.9-483.8,276.9z"/>
<path class="st3" d="M-577.8,192.3c-1.5,0-3-0.5-4.1-1.6l-4.3-4.3c-1.1-1.1-1.7-2.6-1.7-4c0-1.5,0.6-2.9,1.7-4
	c2.2-2.2,5.8-2.2,8.1,0l4.3,4.3c1.1,1.1,1.7,2.6,1.7,4s-0.6,2.9-1.7,4C-574.8,191.8-576.3,192.3-577.8,192.3z M-582.1,178.7
	c-0.9,0-1.9,0.3-2.6,1c-0.7,0.7-1.1,1.6-1.1,2.6c0,0.9,0.4,1.9,1.1,2.6l4.3,4.3c1.5,1.4,3.8,1.4,5.2,0c0.7-0.7,1.1-1.6,1.1-2.6
	s-0.4-1.9-1.1-2.6l-4.3-4.3C-580.2,179.1-581.2,178.7-582.1,178.7z"/>
<path class="st3" d="M-458.4,239.4h-6c-1.5,0-2.9-0.6-4-1.7l0,0c-1.1-1.1-1.7-2.6-1.7-4c0-3.2,2.6-5.7,5.7-5.7h6
	c1.5,0,2.9,0.6,4,1.7c1.1,1.1,1.7,2.6,1.7,4C-452.6,236.8-455.2,239.4-458.4,239.4z M-466.9,236.2c0.7,0.7,1.6,1.1,2.6,1.1h6
	c2,0,3.7-1.6,3.7-3.7c0-0.9-0.4-1.9-1.1-2.6c-0.7-0.7-1.6-1.1-2.6-1.1h-6c-2,0-3.7,1.6-3.7,3.7C-468,234.6-467.6,235.5-466.9,236.2
	L-466.9,236.2z"/>
<path class="st3" d="M-597.4,239.4h-6c-1.5,0-2.9-0.6-4-1.7l0,0c-1.1-1.1-1.7-2.6-1.7-4c0-3.2,2.6-5.7,5.7-5.7h6
	c1.5,0,2.9,0.6,4,1.7c1.1,1.1,1.7,2.6,1.7,4C-591.6,236.8-594.2,239.4-597.4,239.4z M-605.9,236.2c0.7,0.7,1.6,1.1,2.6,1.1h6
	c2,0,3.7-1.6,3.7-3.7c0-0.9-0.4-1.9-1.1-2.6c-0.7-0.7-1.6-1.1-2.6-1.1h-6c-2,0-3.7,1.6-3.7,3.7C-607,234.6-606.6,235.5-605.9,236.2
	L-605.9,236.2z"/>
<path class="st3" d="M-530.9,172.8c-3.2,0-5.7-2.6-5.7-5.7v-6c0-1.5,0.6-2.9,1.7-4l0,0c1.1-1.1,2.6-1.7,4-1.7c3.2,0,5.7,2.6,5.7,5.7
	v6c0,1.5-0.6,2.9-1.7,4C-527.9,172.2-529.4,172.8-530.9,172.8z M-533.4,158.5c-0.7,0.7-1.1,1.6-1.1,2.6v6c0,2,1.6,3.7,3.7,3.7
	c0.9,0,1.9-0.4,2.6-1.1c0.7-0.7,1.1-1.6,1.1-2.6v-6c0-2-1.6-3.7-3.7-3.7C-531.8,157.4-532.7,157.8-533.4,158.5z"/>
<path class="st7" d="M-539.6,279.5c-0.8,0-1.5-0.5-1.7-1.3l-9.1-39.4c-0.2-0.9,0.4-1.9,1.3-2.1c0.9-0.2,1.9,0.4,2.1,1.3l9.1,39.4
	c0.2,0.9-0.4,1.9-1.3,2.1C-539.3,279.4-539.4,279.5-539.6,279.5z"/>
<path class="st7" d="M-519.3,279.5c-0.1,0-0.3,0-0.4,0c-0.9-0.2-1.5-1.1-1.3-2.1l9.1-39.4c0.2-0.9,1.1-1.5,2.1-1.3
	c0.9,0.2,1.5,1.1,1.3,2.1l-9.1,39.4C-517.9,278.9-518.6,279.5-519.3,279.5z"/>
<path class="st7" d="M-524,251.3C-524.1,251.3-524.1,251.3-524,251.3c-0.6,0-1.1-0.3-1.4-0.7l-4-5.4l-4,5.4
	c-0.3,0.4-0.8,0.7-1.3,0.7c0,0,0,0,0,0c-0.5,0-1-0.2-1.3-0.6l-5.8-7.1c-0.6-0.7-0.5-1.8,0.2-2.4c0.7-0.6,1.8-0.5,2.4,0.2l4.4,5.4
	l4-5.3c0.3-0.4,0.8-0.7,1.4-0.7h0.2c0.5,0,1.1,0.3,1.4,0.7l4,5.3l4.4-5.4c0.6-0.7,1.7-0.8,2.4-0.2c0.7,0.6,0.8,1.7,0.2,2.4l-5.8,7.1
	C-523,251-523.5,251.3-524,251.3z"/>
</svg>
