<?xml version="1.0" encoding="utf-8"?>
<!-- Generator: Adobe Illustrator 19.0.0, SVG Export Plug-In . SVG Version: 6.00 Build 0)  -->
<svg version="1.1" id="Layer_1" xmlns="http://www.w3.org/2000/svg" xmlns:xlink="http://www.w3.org/1999/xlink" x="0px" y="0px"
	 width="379.3px" height="70.4px" viewBox="0 0 379.3 70.4" style="enable-background:new 0 0 379.3 70.4;" xml:space="preserve">
<style type="text/css">
	.st0{fill:#FFFFFF;}
	.st1{fill:#ED2A46;}
</style>
<path id="XMLID_720_" class="st0" d="M79.6,52.2l-5.9-2.1c1.7-4.7,2.5-9.6,2.5-14.7c0-4.5-0.7-8.9-2-13.2l5.9-1.9
	c1.5,4.9,2.3,9.9,2.3,15.1C82.5,41.2,81.5,46.9,79.6,52.2z"/>
<path id="XMLID_719_" class="st0" d="M92.4,56.3l-5.9-2c2.1-6,3.1-12.3,3.1-18.7c0-5.9-0.9-11.7-2.7-17.3l6-1.9
	c2,6.2,2.9,12.6,2.9,19.1C95.8,42.6,94.7,49.6,92.4,56.3z"/>
<path id="XMLID_718_" class="st0" d="M66.9,48.2L61,46.1c1.3-3.4,1.9-6.9,1.9-10.6c0-3.1-0.5-6.2-1.4-9.2l6-1.9
	c1.1,3.6,1.7,7.3,1.7,11.1C69.1,39.9,68.4,44.2,66.9,48.2z"/>
<g id="XMLID_659_">
	<g id="XMLID_165_">
		<path id="XMLID_188_" class="st1" d="M128.1,24.4c7.8,0,12.8,5.3,12.8,12.3c0,7.1-5,12.3-12.8,12.3c-7.8,0-12.8-5.3-12.8-12.3
			C115.3,29.7,120.4,24.4,128.1,24.4z M128.1,43.5c3.7,0,6.4-2.7,6.4-6.7c0-4-2.8-6.7-6.4-6.7c-3.6,0-6.4,2.6-6.4,6.7
			C121.8,40.7,124.5,43.5,128.1,43.5z"/>
		<path id="XMLID_186_" class="st1" d="M146.2,25h6v2.4c1.4-1.5,3.9-2.8,6.7-2.8c5.8,0,9.7,2.8,9.7,10.1v13.8h-6V35.8
			c0-3.8-1.9-5.5-5.3-5.5c-2,0-3.7,0.8-5.1,2.2v16.1h-6V25z"/>
		<path id="XMLID_184_" class="st1" d="M174.8,11.9h6v27.7c0,2.7,0.6,3.8,2,3.8c0.9,0,1.7-0.4,2.5-0.9l1.3,4.6c-1.4,1.1-3.4,2-6.2,2
			c-3.6,0-5.5-2.2-5.5-7V11.9z"/>
		<path id="XMLID_181_" class="st1" d="M194.4,13c1.7,0,3.5,1.4,3.5,3.5c0,2.4-1.7,3.8-3.5,3.8c-2,0-3.8-1.4-3.8-3.8
			C190.7,14.4,192.4,13,194.4,13z M191.3,25h6v23.5h-6V25z"/>
		<path id="XMLID_179_" class="st1" d="M204.9,25h6v2.4c1.4-1.5,3.9-2.8,6.7-2.8c5.8,0,9.7,2.8,9.7,10.1v13.8h-6V35.8
			c0-3.8-1.9-5.5-5.3-5.5c-2,0-3.7,0.8-5.1,2.2v16.1h-6V25z"/>
		<path id="XMLID_176_" class="st1" d="M253.7,46.2c-2.4,2-5.7,2.9-9,2.9c-7.6,0-12.7-4.9-12.7-12.3c0-6.9,4.7-12.3,12.4-12.3
			c6.1,0,11.1,4.3,11.1,10.9c0,1.5-0.1,2.4-0.4,3.2h-17c0.5,3.6,3.3,5.5,7.1,5.5c2.9,0,5.3-1,6.6-2.1L253.7,46.2z M238,34.6h11.6
			c0.1-2.9-1.9-5.1-5.4-5.1C240.6,29.4,238.7,31.5,238,34.6z"/>
		<path id="XMLID_174_" class="st0" d="M262,25h4.2v19.6h8.6V25h4.2v19.6h8.6V25h4.2v23.5H262V25z"/>
		<path id="XMLID_172_" class="st0" d="M296.4,25h21.4v4.2h-8.6v19.4H305V29.2h-8.6V25z"/>
		<path id="XMLID_169_" class="st0" d="M322.5,26.6c2.1-1.3,4.9-2.1,7.8-2.1c6.7,0,9.1,3.5,9.1,9.6v14.4h-4v-3
			c-1.4,1.8-3.7,3.4-7.5,3.4c-4.3,0-7.2-2.7-7.2-7.3c0-4.8,3.8-7.5,8.9-7.5c1.8,0,4.3,0.4,5.9,1.5c0-4.4-0.7-7.4-5.3-7.4
			c-2.9,0-4.6,0.7-6.5,1.7L322.5,26.6z M335.5,42.1v-3c-1.5-1-3.2-1.6-5.3-1.6c-2.5,0-5,1.2-5,3.9c0,2.2,1.5,3.7,4.2,3.7
			C332.5,45.1,334.3,43.5,335.5,42.1z"/>
		<path id="XMLID_166_" class="st0" d="M366.9,14.7c-2.9,3.9-6.8,2.4-12,4.7c-4.4,2-5.7,7-6,11.3h0.1c1.5-3.3,5.3-5.5,9.3-5.5
			c6.7,0,10.9,4.7,10.9,11.7c0,6.6-4.9,12.1-12.1,12.1c-7.6,0-12.4-5.6-12.4-14.6c0-7,1.3-15.8,8.7-19c5.5-2.4,8.7-0.9,11.1-4
			L366.9,14.7z M357.1,45.1c4.6,0,7.7-3.6,7.7-8c0-4.6-2.7-8-7.5-8c-4.4,0-7.4,3-8.1,6C349.2,41.3,352.5,45.1,357.1,45.1z"/>
	</g>
</g>
<g id="XMLID_494_">
	<path id="XMLID_526_" class="st1" d="M55.2,35.5c0,12.5-10.2,22.7-22.7,22.7C20.1,58.2,9.9,48,9.9,35.5s10.2-22.7,22.7-22.7
		S55.2,23,55.2,35.5z M20.2,35.5c0,6.8,5.5,12.4,12.4,12.4c6.8,0,12.4-5.5,12.4-12.4c0-6.8-5.5-12.4-12.4-12.4
		C25.8,23.1,20.2,28.7,20.2,35.5z"/>
</g>
</svg>
