<svg width="134" height="50" viewBox="0 0 134 50" fill="none" xmlns="http://www.w3.org/2000/svg">
<g clip-path="url(#clip0_97_241)">
<path d="M0.433685 0H4.08424V24.8923H16.1146V27.9565H0.433685V0Z" fill="#313136"/>
<path d="M37.7874 17.7717C37.7874 25.1922 32.6189 28.4281 27.7552 28.4281C22.2821 28.4281 18.025 24.4589 18.025 18.1179C18.025 11.3871 22.455 7.50507 28.0571 7.50507C33.8788 7.46145 37.7874 11.6461 37.7874 17.7717ZM21.7606 17.987C21.7606 22.387 24.3242 25.6666 27.8842 25.6666C31.4442 25.6666 34.0435 22.4334 34.0435 17.8616C34.0435 14.4513 32.306 10.1821 27.9638 10.1821C23.6216 10.1821 21.7524 14.1923 21.7524 17.9898" fill="#313136"/>
<path d="M43.5651 7.9385L47.9952 19.8026C48.4727 21.1384 48.9503 22.6923 49.2989 23.8918H49.384C49.7326 22.6842 50.2074 21.1657 50.6878 19.7072L54.6842 7.93033H58.5516L53.0785 22.2098C50.4709 29.1124 48.6457 32.6073 46.1699 34.8073C45.1518 35.7065 43.9732 36.4083 42.695 36.8764C42.2417 37.0687 41.7551 37.1715 41.2622 37.179V33.9867C42.1323 33.7713 42.695 33.297 43.9548 32.351C45.2147 31.4051 45.953 30.4945 47.04 28.2945C47.2101 28.039 47.3007 27.7394 47.3007 27.4331C47.3018 27.0992 47.2117 26.7714 47.04 26.4844L39.5687 7.93304L43.5651 7.9385Z" fill="#313136"/>
<path d="M61.9826 13.3308C61.9826 11.2181 61.9386 9.57692 61.8069 7.93851H65.021L65.1967 11.1308H65.2818C65.8966 9.98918 66.8204 9.04091 67.949 8.39302C69.0775 7.74514 70.366 7.42342 71.6689 7.46417C72.9221 7.45014 74.1477 7.8306 75.1699 8.55099C76.192 9.27139 76.9583 10.2947 77.3588 11.4743H77.4439C78.0173 10.4467 78.8019 9.55041 79.7467 8.84359C81.0169 7.88065 82.5793 7.37589 84.1768 7.41237C86.8694 7.41237 90.8219 9.13801 90.8219 16.136V27.9565H87.2537V16.6512C87.2537 12.7692 85.8182 10.4847 82.8621 10.4847C81.883 10.5255 80.9393 10.8599 80.1554 11.4439C79.3715 12.0279 78.784 12.834 78.4704 13.7561C78.2641 14.3384 78.1611 14.9517 78.1658 15.569V27.9919H74.5975V15.9179C74.5975 12.7256 73.162 10.4411 70.3843 10.4411C68.0814 10.4411 66.4318 12.2513 65.8225 14.0641C65.6269 14.648 65.5386 15.2621 65.5617 15.877V27.9565H61.9826V13.3308Z" fill="#313136"/>
<path d="M108.067 27.9565L107.763 25.4048H107.634C106.927 26.363 105.996 27.1351 104.921 27.654C103.845 28.1728 102.658 28.4227 101.463 28.3818C97.3819 28.3818 95.2959 25.4921 95.2959 22.5996C95.2959 17.7253 99.6409 15.0946 107.414 15.1382V14.7048C107.414 13.0691 106.98 10.0458 102.811 10.0894C100.95 10.0846 99.1261 10.6087 97.5549 11.5997L96.7314 9.18434C98.7503 8.02181 101.043 7.41047 103.377 7.41236C109.544 7.41236 111.062 11.597 111.062 15.6098V23.1585C111.032 24.7607 111.134 26.3626 111.367 27.9483L108.067 27.9565ZM107.502 17.7308C103.506 17.6435 98.9931 18.3769 98.9931 22.218C98.9931 24.5897 100.558 25.7129 102.427 25.7129C103.497 25.7386 104.549 25.4265 105.429 24.8216C106.31 24.2167 106.975 23.35 107.329 22.3461C107.446 21.9841 107.504 21.6059 107.502 21.2257V17.7308Z" fill="#313136"/>
<path d="M118.753 7.93849L121.662 12.2512C122.444 13.3744 123.051 14.4103 123.704 15.5226H123.798C124.451 14.3585 125.145 13.3226 125.84 12.2512L128.664 7.98212H132.661L125.799 17.6871L132.88 28.0465H128.7L125.703 23.5592C124.92 22.3952 124.27 21.2747 123.529 20.0671H123.444C122.79 21.2747 122.096 22.3516 121.314 23.5592L118.404 28.0465H114.364L121.574 17.7717L114.669 7.93576L118.753 7.93849Z" fill="#313136"/>
<path d="M72.9699 38.1795C71.6689 38.1795 71.1473 39.4308 71.1473 40.5948C71.1473 41.977 71.8418 43.0102 72.9287 43.0102C74.0156 43.0102 74.7073 42.0179 74.7073 40.5567C74.7073 39.4798 74.2297 38.1849 72.9699 38.1849" fill="#0094F9"/>
<path d="M108.891 38.1795C107.59 38.1795 107.068 39.4308 107.068 40.5948C107.068 41.977 107.763 43.0102 108.85 43.0102C109.937 43.0102 110.628 42.0179 110.628 40.5567C110.628 39.4798 110.109 38.1849 108.891 38.1849" fill="#0094F9"/>
<path d="M52.4335 30.759C52.159 31.1488 51.912 31.5768 51.5661 32.0539C50.1957 34.0834 48.439 35.8272 46.395 37.1872C44.2513 38.4483 41.8076 39.1184 39.3162 39.1282V30.8026H0.00823975V50H133.997V30.8026H52.4335V30.759ZM64.0741 44.3487C63.3084 44.3659 62.5495 44.2034 61.859 43.8744L62.2515 42.5359C62.806 42.857 63.4325 43.035 64.0741 43.0538C64.8975 43.0538 65.2461 42.7103 65.2461 42.236C65.2461 41.7616 64.9442 41.5027 64.0741 41.2001C62.6413 40.7257 62.0759 39.9488 62.0759 39.0846C62.0759 37.7924 63.1189 36.841 64.8207 36.841C65.497 36.8341 66.1658 36.9824 66.7749 37.2744L66.4291 38.5666C65.9629 38.3129 65.44 38.1798 64.9085 38.1795C64.2552 38.1795 63.9094 38.4821 63.9094 38.9564C63.9094 39.4308 64.2552 39.6025 65.2132 39.9488C66.5142 40.4231 67.1345 41.0692 67.1345 42.1488C67.0027 43.4001 66.0064 44.3487 64.0933 44.3487H64.0741ZM72.9122 44.3487C71.9908 44.3812 71.0939 44.0497 70.418 43.4269C69.742 42.8041 69.3421 41.9406 69.3056 41.0256V40.6385C69.2427 39.7143 69.5449 38.8021 70.1481 38.0957C70.7513 37.3892 71.6079 36.944 72.5362 36.8546H72.9699C73.8884 36.8284 74.7809 37.1598 75.4568 37.7782C76.1327 38.3965 76.5385 39.2528 76.5875 40.1641V40.5512C76.628 41.0137 76.5756 41.4796 76.4332 41.9218C76.2909 42.3639 76.0615 42.7736 75.7583 43.1269C75.4552 43.4803 75.0843 43.7702 74.6674 43.98C74.2504 44.1897 73.7956 44.3151 73.3295 44.3487H72.9122ZM81.207 44.2179H79.3844V33.7795H81.207V44.2179ZM89.3727 44.2179L89.2876 43.1411H89.2135C88.9654 43.5241 88.6247 43.8393 88.2224 44.0579C87.8201 44.2764 87.3691 44.3914 86.9106 44.3924C85.6068 44.3924 84.3909 43.6154 84.3909 41.2846V37.1H86.2162V41.0256C86.2162 42.236 86.6059 42.9693 87.5611 42.9693C87.7589 42.9698 87.9548 42.9307 88.137 42.8544C88.3193 42.7781 88.4842 42.6662 88.622 42.5253C88.7598 42.3843 88.8676 42.2173 88.9391 42.0341C89.0105 41.851 89.0441 41.6554 89.0378 41.459V37.1436H90.8603V42.1488C90.8603 43.0102 90.8603 43.7026 90.9043 44.3051L89.3727 44.2179ZM97.9748 38.3949H96.2374V41.5872C96.2374 42.4514 96.4542 42.9257 97.1486 42.9257C97.3823 42.9181 97.6148 42.8889 97.8431 42.8385L97.887 44.177C97.4678 44.3181 97.0249 44.3764 96.5832 44.3487C96.2938 44.3716 96.0029 44.3291 95.7323 44.2242C95.4618 44.1194 95.2188 43.9551 95.0214 43.7435C94.5742 43.1675 94.3713 42.4406 94.456 41.718V38.3512H93.413V36.9718H94.4286V35.3361L96.2099 34.9027V36.9746H97.9474L97.9748 38.3949ZM102.421 44.2152H100.596V37.0563H102.421V44.2152ZM101.507 36.0368C101.378 36.0322 101.25 36.0012 101.133 35.9458C101.016 35.8905 100.911 35.8118 100.826 35.7147C100.741 35.6176 100.676 35.5042 100.637 35.3814C100.597 35.2586 100.583 35.1291 100.596 35.0008C100.6 34.8719 100.631 34.7452 100.687 34.6286C100.742 34.512 100.822 34.408 100.919 34.3231C101.017 34.2382 101.132 34.1742 101.255 34.1351C101.379 34.096 101.51 34.0826 101.639 34.0958C101.889 34.1164 102.122 34.2301 102.291 34.4142C102.46 34.5982 102.553 34.839 102.55 35.0881C102.551 35.3439 102.451 35.5899 102.273 35.7748C102.095 35.9596 101.852 36.0691 101.595 36.0804L101.507 36.0368ZM108.806 44.3624C107.884 44.3948 106.987 44.0633 106.311 43.4405C105.635 42.8177 105.236 41.9543 105.199 41.0392C105.038 40.0996 105.259 39.1349 105.812 38.3562C106.366 37.5776 107.207 37.0485 108.152 36.8846C108.411 36.8483 108.673 36.8337 108.935 36.841C109.854 36.8171 110.746 37.1514 111.421 37.7724C112.095 38.3934 112.499 39.2518 112.544 40.1641V40.5512C112.62 41.4887 112.321 42.4182 111.711 43.1375C111.101 43.8568 110.229 44.3078 109.286 44.3924C109.129 44.3581 108.969 44.3434 108.808 44.3487L108.806 44.3624ZM121.753 44.2179H119.928V40.1641C119.928 39.1282 119.538 38.3512 118.539 38.3512C118.214 38.3579 117.899 38.4672 117.641 38.6633C117.383 38.8593 117.195 39.132 117.103 39.4417C117.055 39.6253 117.026 39.8136 117.018 40.0033V44.2152H115.193V39.2127C115.193 38.3949 115.193 37.7024 115.149 37.0972H116.757L116.842 38.1877H116.886C117.13 37.8004 117.47 37.4818 117.873 37.2627C118.276 37.0435 118.729 36.9312 119.189 36.9364C120.493 36.9364 121.753 37.7542 121.753 40.0006V44.2179ZM126.693 44.3487C125.93 44.3459 125.175 44.1843 124.478 43.8744L124.824 42.5359C125.379 42.8574 126.007 43.0355 126.649 43.0538C127.473 43.0538 127.821 42.7103 127.821 42.236C127.821 41.7616 127.517 41.5027 126.649 41.2001C125.217 40.7257 124.651 39.9488 124.651 39.0846C124.651 37.7924 125.694 36.841 127.396 36.841C128.072 36.835 128.741 36.9833 129.35 37.2744L129.013 38.5666C128.547 38.3129 128.024 38.1798 127.492 38.1795C126.842 38.1795 126.493 38.4821 126.493 38.9564C126.493 39.4308 126.842 39.6025 127.797 39.9488C129.101 40.4231 129.751 41.0692 129.751 42.1488C129.666 43.4437 128.667 44.3924 126.713 44.3487" fill="#0094F9"/>
</g>
<defs>
<clipPath id="clip0_97_241">
<rect width="134" height="50" fill="white"/>
</clipPath>
</defs>
</svg>
