<svg width="23" height="16" viewBox="0 0 23 16" fill="none" xmlns="http://www.w3.org/2000/svg">
<path d="M21.6135 2.37726C21.4894 1.91985 21.2497 1.50297 20.9178 1.1676C20.5859 0.832229 20.1733 0.589927 19.7207 0.464522C18.0442 -3.6193e-07 11.3261 0 11.3261 0C11.3261 0 4.611 -1.44772e-07 2.93148 0.449341C2.47909 0.579519 2.06753 0.825309 1.7365 1.163C1.40548 1.5007 1.16616 1.9189 1.04164 2.37726C0.599975 4.07443 0.599976 7.59023 0.599976 7.59023C0.599976 7.59023 0.599975 11.1273 1.04164 12.8062C1.16679 13.2651 1.40839 13.6829 1.74249 14.0184C2.0766 14.3539 2.49164 14.5954 2.9465 14.719C4.64405 15.1805 11.3411 15.1805 11.3411 15.1805C11.3411 15.1805 18.0592 15.1805 19.7357 14.7342C20.188 14.609 20.6003 14.3672 20.9322 14.0324C21.264 13.6976 21.504 13.2813 21.6286 12.8245C22.0552 11.1333 22.0552 7.60844 22.0552 7.60844C22.0552 7.60844 22.0732 4.07443 21.6135 2.37726Z" fill="#313136"/>
<path d="M14.7753 7.59025L9.18982 4.33859V10.8419L14.7753 7.59025Z" fill="white"/>
</svg>
